<svg xmlns="http://www.w3.org/2000/svg" viewBox="0 0 1156.52 860.61"><defs><style>.cls-1{fill:none;stroke:#000;stroke-miterlimit:10;stroke-width:20px;}</style></defs><g id="Layer_2" data-name="Layer 2"><g id="Layer_1-2" data-name="Layer 1"><path d="M1154.76,737.79l-57.48-119.42A91.16,91.16,0,0,0,1015.56,567h-35L918.75,446l93.41-73.4A128.88,128.88,0,0,0,1057.53,302l28.08-115.49a54.79,54.79,0,0,0-10.23-47.08l-93-118.39A54.79,54.79,0,0,0,939,0L820.14,0a128.73,128.73,0,0,0-79.23,27.41l-240.47,189a128.82,128.82,0,0,0-45.36,70.54L427,402.4a54.83,54.83,0,0,0,10.21,47.08l13.32,16.93-4.63,3.72a77.17,77.17,0,0,0-29,60.4V567h-61V371.33a39.81,39.81,0,0,0-39.77-39.76H136.92C61.47,331.57.08,393,.08,468.42V723.33a39.82,39.82,0,0,0,39.77,39.78h37.9c.3,0,.6,0,1-.05l.23,0h30.83l-.4,6.37c-.12,1.89-.18,3.6-.18,5.23a86,86,0,1,0,171.93,0c0-1.63-.06-3.34-.18-5.22l-.4-6.38H402.41l.5,5.45A29.39,29.39,0,0,0,432,795h71.36a29.41,29.41,0,0,0,29.06-26.51l.5-5.45h147l-.39,6.38c-.12,1.88-.18,3.59-.18,5.22a86,86,0,1,0,171.93,0c0-1.51,0-3.13-.17-5.25l-.37-6.35h32.49l-.4,6.37c-.12,1.89-.17,3.6-.17,5.23a86,86,0,1,0,171.93,0c0-1.51-.06-3.13-.18-5.25L1054,763l84.79.08a17.67,17.67,0,0,0,15.93-25.32ZM956,567H764.74L901.18,459.79ZM804.15,23.18a106.52,106.52,0,0,1,16-1.24L939,22A33,33,0,0,1,965.1,34.63l93,118.39a33,33,0,0,1,6.15,28.34L1036.2,296.85a106.9,106.9,0,0,1-5,15.26l-3.91,9.51L794,24.75ZM448.32,407.58l28.08-115.5a107.3,107.3,0,0,1,5-15.25l3.91-9.51,38.06,48.42a11,11,0,0,0,15.4,1.85,11,11,0,0,0,1.85-15.42l-42.16-53.65,3.49-3.75A105,105,0,0,1,514,233.63l240.47-189a104.43,104.43,0,0,1,13.68-9.09l4.48-2.51,241.53,307.37-3.5,3.76a106.23,106.23,0,0,1-12.06,11.13l-240.47,189a105.68,105.68,0,0,1-13.67,9.09L740,555.89,589.21,364A11,11,0,1,0,572,377.59L718.62,564.22l-10.17,1.54a106.89,106.89,0,0,1-16,1.24l-118.85,0a32.94,32.94,0,0,1-26.08-12.68l-93-118.38A33,33,0,0,1,448.32,407.58Zm-9.52,123a55.34,55.34,0,0,1,20.51-43.06l4.73-3.85L529.58,567H438.8Zm-370,205.74-1,4.82H56.39a8.48,8.48,0,0,0-.87.06l-.24,0H39.85A17.85,17.85,0,0,1,22,723.33V553h0V472h0v-3.58a115,115,0,0,1,114.9-114.91h96V354h21.95v-.49h61.2a17.85,17.85,0,0,1,17.83,17.82V630.42a17,17,0,0,1-17,17H177.21A110.83,110.83,0,0,0,68.75,736.27Zm126.4,102.39a64,64,0,1,1,64-64A64.09,64.09,0,0,1,195.15,838.66Zm207.62-97.57H274.4l-1.64-3.41a85.95,85.95,0,0,0-155.2,0l-1.64,3.41H89.82L92,733.43a89.06,89.06,0,0,1,85.18-64.06h139.7a39,39,0,0,0,35.6-23.24l1.58-3.57h48.68ZM355.85,620.62V589H657.19l-8.38,9.88a91.71,91.71,0,0,0-12.1,18.22L635,620.62ZM576.16,738l-1.71,3.1H532.53V711a11,11,0,0,0-21.94,0V765.8a7.27,7.27,0,0,1-7.26,7.26H432a7.27,7.27,0,0,1-7.26-7.26V642.56H623.93l-47.45,94.78A5.49,5.49,0,0,1,576.16,738ZM765.31,838.66a64,64,0,1,1,64-64A64.09,64.09,0,0,1,765.31,838.66Zm203.31,0a64,64,0,1,1,64-64A64.1,64.1,0,0,1,968.62,838.66Zm79.23-97.56-1.63-3.41a86,86,0,0,0-155.21,0l-1.63,3.41H844.54l-1.63-3.41a86,86,0,0,0-155.21,0l-1.63,3.41h-27l45.16-90.17a15,15,0,0,1,13.52-8.35h297.78a15.19,15.19,0,0,1,13.63,8.57l43.31,90Zm62,.07-.24,0a8.87,8.87,0,0,0-.89-.06h-5.39l-.44-.06a12.34,12.34,0,0,1-9.33-6.86L1049,641.62a37.26,37.26,0,0,0-33.4-21H717.79a36.9,36.9,0,0,0-33.16,20.47l-46.69,93.25a12.22,12.22,0,0,1-10.09,6.74H599.14l57.17-114.18a68.37,68.37,0,0,1,61.47-38h297.78a69.14,69.14,0,0,1,62,38.93L1132,741.17Z"/><path d="M189.79,584.26a11.63,11.63,0,1,1,0-23.26h37.6a11.63,11.63,0,0,1,0,23.26Z"/><circle class="cls-1" cx="969" cy="775" r="32"/><circle class="cls-1" cx="765" cy="775" r="32"/><circle class="cls-1" cx="195" cy="775" r="32"/><path class="cls-1" d="M10,578H57.5A32.5,32.5,0,0,1,90,610.5v0A32.5,32.5,0,0,1,57.5,643H10a0,0,0,0,1,0,0V578A0,0,0,0,1,10,578Z"/><path class="cls-1" d="M144.45,386.29H294a0,0,0,0,1,0,0V517a0,0,0,0,1,0,0H59a0,0,0,0,1,0,0V471.75A85.45,85.45,0,0,1,144.45,386.29Z"/></g></g></svg>