<?xml version="1.0" encoding="UTF-8"?>
<svg id="Logo" xmlns="http://www.w3.org/2000/svg" version="1.1" viewBox="0 0 1080 283.5">
    <defs>
        <style>
            .cls-1 {
            fill: #004e2b;
            }

            .cls-1, .cls-2, .cls-3 {
            stroke-width: 0px;
            }

            .cls-2 {
            fill: #00dd39;
            }

            .cls-3 {
            fill: #fff;
            }
        </style>
    </defs>
    <g>
        <path class="cls-1" d="M283.5,283.5H109C43.6,283.5,0,239.9,0,174.4V0h174.4c65.4,0,109,43.6,109,109v174.4Z"/>
        <path class="cls-2" d="M152.6,98.1h21.8c40.7,0,65.4,24.8,65.4,65.4v76.3h-21.8c-40.1,0-65.4-25.6-65.4-65.4v-76.3Z"/>
        <path class="cls-3" d="M43.6,43.6h87.2v196.2h-21.8c-40.5,0-65.4-24.5-65.4-65.4V43.6Z"/>
    </g>
    <path class="cls-1" d="M348.9,125.4V43.6s35.1,0,35.1,0c25.5,0,44.4,17.2,44.4,41s-18.9,40.8-44.4,40.8h-35.1ZM365.9,109.7h18.9c15,0,25.9-11,25.9-25.2s-11-25.2-25.9-25.2h-18.9v50.5ZM454.9,63.2v33.7c0,10.5,5,16.2,12.5,16.2s17.6-7.6,17.6-19.8v-30.2h16.1v62.2h-15.3l-.4-8.2c-4.3,5.3-11,9.3-20.8,9.3-15.7,0-25.9-11.5-25.9-29.2v-34.1h16.1ZM561.1,125.4v-33.7c0-10.5-5-16.2-12.5-16.2s-17.6,7.6-17.6,19.8v30.2h-16.1v-62.2h15.3l.3,8.2c4.3-5.3,11-9.3,20.8-9.3,15.7,0,25.9,11.5,25.9,29.2v34.1h-16.1ZM586.7,94.3c0-18.2,14-32.3,32.3-32.3s17.4,4.3,21.3,9.3l.4-8.2h15.3v62.2h-15.3l-.4-8.2c-3.9,5-11,9.3-21.3,9.3-18.2,0-32.3-14-32.3-32.3ZM621.4,113.1c10.6,0,18.8-8.1,18.8-18.8s-8.2-18.8-18.8-18.8-18.8,8.3-18.8,18.8,8.2,18.8,18.8,18.8ZM707.2,95.9h-37.4v-15.2h37.4v15.2ZM721.6,125.4V43.6h35.1c25.5,0,44.4,17.2,44.4,41s-18.9,40.8-44.4,40.8h-35.1ZM738.6,109.7h18.9c15,0,25.9-11,25.9-25.2s-11-25.2-25.9-25.2h-18.9v50.5ZM811.3,125.4v-35.3c0-16.4,10.5-26.9,26.9-26.9h14.5v14.5h-10.8c-10.3,0-14.5,4.2-14.5,14.5v33.2h-16.1ZM897.6,55.3h-11.3l5-22h17.1l-10.8,22ZM935,63.2h17.5l19.5,45.1,19.5-45.1h17.5l-29,62.2h-16.1l-29-62.2ZM1010.8,94.3c0-18.2,14-32.3,32.3-32.3s17.4,4.3,21.3,9.3l.3-8.2h15.3v62.2h-15.3l-.3-8.2c-3.9,5-11,9.3-21.3,9.3-18.2,0-32.3-14-32.3-32.3ZM1045.5,113.1c10.6,0,18.8-8.1,18.8-18.8s-8.2-18.8-18.8-18.8-18.8,8.3-18.8,18.8,8.2,18.8,18.8,18.8ZM345.6,199c0-23.8,18.2-42.1,44.2-42.1s28.6,8.6,35.2,16.6l-11.6,11.6c-5.4-7.6-14.8-12.3-23.6-12.3-16.1,0-26.6,11.9-26.6,26.2s10.5,26.3,26.6,26.3,18.9-4.9,24.2-12.7l11.6,11.6c-6.1,8.8-18.1,16.9-35.8,16.9-25.9,0-44.2-18.3-44.2-42.1ZM433.6,208.8c0-19.2,14.3-32.3,32.5-32.3s32.3,13.1,32.3,32.3,0,3.2-.2,6.7h-47.7c1.8,6.8,7.5,12.3,17.8,12.3s12.4-2.1,16.8-6.8l10.1,10.1c-5.6,5.1-13.6,10.1-27.6,10.1-21.9,0-33.9-13.1-33.9-32.3ZM482.2,202.4c-.9-6.5-6.1-12.5-15.4-12.5s-15.2,6.1-16.8,12.5h32.3ZM549.6,239.9v-37.2c0-8.4-3.6-12.7-9.7-12.7s-14.8,7.6-14.8,19.8v30.2h-16.1v-62.2h15.3l.3,8.2c3.6-5.4,9.6-9.3,17.5-9.3s15.1,3.9,19.2,9.9c5.5-6.4,11.5-9.9,21.5-9.9,14.5,0,23.6,11.2,23.6,25.7v37.6h-16.1v-37.2c0-8.4-3.6-12.7-9.7-12.7s-14.8,7.6-14.8,19.8v30.2h-16.1ZM616.2,208.8c0-19.2,14.3-32.3,32.5-32.3s32.3,13.1,32.3,32.3,0,3.2-.2,6.7h-47.7c1.8,6.8,7.5,12.3,17.8,12.3s12.4-2.1,16.8-6.8l10.1,10.1c-5.6,5.1-13.6,10.1-27.6,10.1-21.9,0-33.9-13.1-33.9-32.3ZM664.8,202.4c-.9-6.5-6.1-12.5-15.4-12.5s-15.2,6.1-16.8,12.5h32.3ZM737.7,239.9v-33.7c0-10.5-5-16.2-12.5-16.2s-17.6,7.6-17.6,19.8v30.2h-16.1v-62.2h15.3l.3,8.2c4.3-5.3,11-9.3,20.8-9.3,15.7,0,25.9,11.5,25.9,29.2v34.1h-16.1ZM775.6,192.2h-14.3v-14.5h14.3v-16.9h16.1v16.9h22.7v14.5h-22.7v21.3c0,7.9,4,11.9,11.9,11.9h10.8v14.5h-13.6c-16.6,0-25.2-8.6-25.2-25.2v-22.4ZM857.8,94.3c0-18.2,14-32.3,32.3-32.3s17.4,4.3,21.3,9.3l.3-8.2h15.3v62.2h-15.3l-.3-8.2c-3.9,5-11,9.3-21.3,9.3-18.2,0-32.3-14-32.3-32.3ZM892.5,113.1c10.6,0,18.8-8.1,18.8-18.8s-8.2-18.8-18.8-18.8-18.8,8.3-18.8,18.8,8.2,18.8,18.8,18.8Z"/>
</svg>