<?xml version="1.0" encoding="utf-8"?>
<!-- Generator: Adobe Illustrator 27.5.0, SVG Export Plug-In . SVG Version: 6.00 Build 0)  -->
<svg version="1.1" id="Layer_2_00000080911178588418356870000012736617276225887378_"
     xmlns="http://www.w3.org/2000/svg" xmlns:xlink="http://www.w3.org/1999/xlink" x="0px" y="0px" viewBox="0 0 118.5 127.7"
     style="enable-background:new 0 0 118.5 127.7;" xml:space="preserve">
<style type="text/css">
	.st0{fill:none;}
	.st1{fill:#231F20;}
	.st2{opacity:0.3;}
	.st3{fill:none;stroke:#231F20;stroke-width:0.5;stroke-miterlimit:10;}
	.st4{opacity:0.57;fill:#231F20;}
</style>
    <g id="Layer_1-2">
	<ellipse class="st0" cx="54.8" cy="25.2" rx="45.8" ry="11.1"/>
        <path class="st1" d="M54.8,36.9C32,36.9,8.4,32.5,8.4,25.2S32,13.4,54.8,13.4s46.4,4.4,46.4,11.7S77.6,36.9,54.8,36.9L54.8,36.9z
		 M54.8,14.6c-27.1,0-45.2,5.5-45.2,10.6s18.2,10.6,45.2,10.6s45.2-5.5,45.2-10.6S81.9,14.6,54.8,14.6z"/>
        <path class="st1" d="M54.8,75.2c-0.8,0-1.6,0-2.3,0l0-1.2c1.5,0,3.1,0,4.7,0l0,1.2C56.4,75.2,55.6,75.2,54.8,75.2z M47.8,75.1
		c-1.6-0.1-3.2-0.1-4.7-0.2l0.1-1.2c1.5,0.1,3.1,0.2,4.6,0.2C47.9,73.9,47.8,75.1,47.8,75.1z M61.9,75.1l0-1.2
		c1.6-0.1,3.1-0.1,4.6-0.2l0.1,1.2C65,74.9,63.4,75,61.9,75.1z M38.5,74.5c-1.6-0.1-3.1-0.3-4.7-0.5l0.1-1.2
		c1.5,0.2,3.1,0.4,4.6,0.5L38.5,74.5z M71.2,74.5l-0.1-1.2c1.6-0.1,3.1-0.3,4.6-0.5l0.1,1.2C74.4,74.2,72.8,74.3,71.2,74.5
		L71.2,74.5z M29.2,73.3c-1.6-0.3-3.2-0.5-4.6-0.9l0.2-1.2c1.4,0.3,3,0.6,4.6,0.9L29.2,73.3z M80.5,73.3l-0.2-1.2
		c1.6-0.3,3.1-0.5,4.6-0.9l0.2,1.2C83.7,72.7,82.1,73,80.5,73.3z M20,71.3c-1.7-0.5-3.2-1-4.5-1.5l0.4-1.1c1.3,0.5,2.8,1,4.4,1.4
		L20,71.3L20,71.3z M89.7,71.3l-0.3-1.1c1.6-0.5,3.1-0.9,4.4-1.5l0.4,1.1C92.9,70.3,91.3,70.8,89.7,71.3L89.7,71.3z M11.2,67.7
		c-1.9-1.3-2.8-2.7-2.8-4.1l1.2,0c0,1,0.8,2.1,2.3,3.2L11.2,67.7L11.2,67.7z M98.4,67.6l-0.7-1c1.5-1.1,2.3-2.1,2.3-3.2l1.2-0.1v0.1
		C101.2,64.9,100.3,66.3,98.4,67.6z"/>
        <path class="st1" d="M54.8,113.5c-22.8,0-46.4-4.4-46.4-11.7c0-7.3,23.6-11.7,46.4-11.7s46.4,4.4,46.4,11.7
		C101.2,109.1,77.6,113.5,54.8,113.5z M54.8,91.2c-27.1,0-45.2,5.5-45.2,10.5c0,5.1,18.2,10.6,45.2,10.6s45.2-5.5,45.2-10.6
		C100.1,96.7,81.9,91.2,54.8,91.2z"/>
        <line class="st0" x1="9" y1="25.2" x2="9" y2="101.8"/>
        <rect x="8.4" y="25.2" class="st1" width="1.2" height="76.6"/>
        <line class="st0" x1="100.7" y1="25.2" x2="100.7" y2="101.8"/>
        <rect x="100.1" y="25.2" class="st1" width="1.2" height="76.6"/>
        <g class="st2">
		<rect x="11.4" y="63.3" class="st1" width="86.9" height="0.4"/>
            <polygon class="st1" points="12.6,65.1 12.9,64.8 11.5,63.5 12.9,62.2 12.6,61.9 11,63.5 		"/>
            <polygon class="st1" points="97.1,65.1 96.8,64.8 98.2,63.5 96.8,62.2 97.1,61.9 98.7,63.5 		"/>
	</g>
</g>
    <g class="st2">
	<g>
		<line class="st3" x1="106.5" y1="27.3" x2="107.1" y2="102.8"/>
        <g>
			<polygon class="st1" points="104.5,29 104.8,29.3 106.5,27.5 108.2,29.3 108.5,29 106.5,26.8 			"/>
		</g>
        <g>
			<polygon class="st1" points="105,101.2 105.4,100.8 107.1,102.6 108.7,100.8 109.1,101.2 107.1,103.4 			"/>
		</g>
	</g>
</g>
    <g class="st2">
	<path d="M109.5,64.5c0.2-0.3,0.4-0.5,0.7-0.7c0.3-0.2,0.6-0.3,1-0.3c0.6,0,1,0.2,1.2,0.5c0.3,0.3,0.4,0.8,0.4,1.4v3.4h-0.6v-3.4
		c0-0.5-0.1-0.8-0.3-1c-0.2-0.2-0.5-0.3-0.9-0.3c-0.4,0-0.7,0.1-0.9,0.3s-0.5,0.5-0.6,0.9v3.5H109v-7.3h0.6V64.5z"/>
</g>
    <g class="st2">
	<path d="M56.5,59.5c0-0.8,0.2-1.5,0.6-2c0.4-0.5,0.9-0.8,1.5-0.8c0.7,0,1.3,0.3,1.7,0.9v-3.1h0.6v7.8h-0.6l0-0.7
		c-0.4,0.6-1,0.8-1.7,0.8c-0.6,0-1.1-0.3-1.5-0.8C56.7,61.1,56.5,60.4,56.5,59.5L56.5,59.5z M57.1,59.6c0,0.7,0.1,1.2,0.4,1.7
		c0.3,0.4,0.7,0.6,1.2,0.6c0.7,0,1.3-0.3,1.6-1v-2.6c-0.3-0.7-0.8-1.1-1.6-1.1c-0.5,0-0.9,0.2-1.2,0.6
		C57.2,58.2,57.1,58.8,57.1,59.6z"/>
</g>
    <path class="st4" d="M11.8,60.3l-0.7-1c1.1-0.8,2.5-1.5,4.3-2.2l0.4,1.1C14.2,58.9,12.9,59.6,11.8,60.3L11.8,60.3z"/>
    <path class="st4" d="M97.7,60.2c-1-0.7-2.4-1.4-4-2l0.4-1.1c1.7,0.7,3.2,1.4,4.3,2.2L97.7,60.2z"/>
    <path class="st4" d="M20.2,56.8l-0.3-1.1c1.4-0.4,2.9-0.8,4.6-1.1l0.2,1.2C23.1,56,21.6,56.4,20.2,56.8L20.2,56.8z"/>
    <path class="st4" d="M89.3,56.7c-1.4-0.4-2.9-0.8-4.5-1.1l0.2-1.2c1.6,0.3,3.2,0.7,4.6,1.1L89.3,56.7L89.3,56.7z"/>
    <path class="st4" d="M29.3,54.8l-0.2-1.2c1.5-0.2,3-0.5,4.6-0.7l0.1,1.2C32.3,54.4,30.8,54.6,29.3,54.8L29.3,54.8z"/>
    <path class="st4" d="M80.2,54.8c-1.5-0.2-3-0.5-4.6-0.7l0.1-1.2c1.6,0.2,3.1,0.4,4.6,0.7L80.2,54.8L80.2,54.8z"/>
    <path class="st4" d="M38.5,53.7l-0.1-1.2c1.5-0.1,3.1-0.3,4.7-0.4l0.1,1.2C41.6,53.4,40,53.5,38.5,53.7z"/>
    <path class="st4" d="M71,53.6c-1.5-0.1-3.1-0.3-4.6-0.4l0.1-1.2c1.6,0.1,3.1,0.2,4.7,0.4L71,53.6L71,53.6z"/>
    <path class="st4" d="M47.8,53.1l0-1.2c1.5-0.1,3.1-0.1,4.7-0.1l0,1.2C50.9,53,49.3,53,47.8,53.1z"/>
    <path class="st4" d="M61.7,53.1c-1.5-0.1-3.1-0.1-4.7-0.1l0-1.2c1.6,0,3.1,0.1,4.7,0.1L61.7,53.1L61.7,53.1z"/>
</svg>
