<svg xmlns="http://www.w3.org/2000/svg" xmlns:xlink="http://www.w3.org/1999/xlink" width="1921" height="481" viewBox="0 0 1921 481">
  <defs>
    <clipPath id="clip-path">
      <rect id="Rectangle_126" data-name="Rectangle 126" width="1921" height="481" transform="translate(0 3727)" fill="#039c57"/>
    </clipPath>
  </defs>
  <g id="Mask_Group_9" data-name="Mask Group 9" transform="translate(0 -3727)" clip-path="url(#clip-path)">
    <g id="Group_504" data-name="Group 504" transform="translate(2275.196 2586.814)" opacity="0.034">
      <g id="Group_452" data-name="Group 452" transform="translate(-437.684 1140.186)">
        <g id="Group_451" data-name="Group 451">
          <g id="Group_450" data-name="Group 450">
            <path id="Path_531" data-name="Path 531" d="M-454.646,1190.015H-487.22V1172.76h32.574v-32.574h17.256v32.574h32.571v17.254H-437.39v32.574h-17.256Z" transform="translate(487.22 -1140.186)"/>
          </g>
        </g>
      </g>
      <g id="Group_455" data-name="Group 455" transform="translate(-505.321 1198.256)" opacity="0.8">
        <g id="Group_454" data-name="Group 454">
          <g id="Group_453" data-name="Group 453">
            <path id="Path_532" data-name="Path 532" d="M-506.581,1219.044h-26.06v-13.8h26.06v-26.058h13.806v26.058h26.057v13.8h-26.057v26.06h-13.806Z" transform="translate(532.641 -1179.182)"/>
          </g>
        </g>
      </g>
      <g id="Group_458" data-name="Group 458" transform="translate(-546.909 1256.324)" opacity="0.6">
        <g id="Group_457" data-name="Group 457">
          <g id="Group_456" data-name="Group 456">
            <path id="Path_533" data-name="Path 533" d="M-541.024,1248.074h-19.545v-10.353h19.545v-19.545h10.354v19.545h19.543v10.353h-19.543v19.544h-10.354Z" transform="translate(560.569 -1218.177)"/>
          </g>
        </g>
      </g>
      <g id="Group_461" data-name="Group 461" transform="translate(-520.86 1156.666)" opacity="0.6">
        <g id="Group_460" data-name="Group 460">
          <g id="Group_459" data-name="Group 459">
            <path id="Path_534" data-name="Path 534" d="M-523.531,1181.15h-19.545V1170.8h19.545v-19.543h10.354V1170.8h19.543v10.354h-19.543v19.545h-10.354Z" transform="translate(543.076 -1151.253)"/>
          </g>
        </g>
      </g>
      <g id="Group_464" data-name="Group 464" transform="translate(-588.497 1314.392)" opacity="0.4">
        <g id="Group_463" data-name="Group 463">
          <g id="Group_462" data-name="Group 462">
            <path id="Path_535" data-name="Path 535" d="M-575.467,1277.1H-588.5v-6.9h13.03v-13.03h6.9v13.03h13.03v6.9h-13.03v13.03h-6.9Z" transform="translate(588.497 -1257.172)"/>
          </g>
        </g>
      </g>
      <g id="Group_467" data-name="Group 467" transform="translate(-463.733 1239.844)">
        <g id="Group_466" data-name="Group 466">
          <g id="Group_465" data-name="Group 465">
            <path id="Path_536" data-name="Path 536" d="M-472.137,1256.939h-32.576v-17.255h32.576V1207.11h17.254v32.574h32.573v17.255h-32.573v32.574h-17.254Z" transform="translate(504.713 -1207.11)"/>
          </g>
        </g>
      </g>
      <g id="Group_470" data-name="Group 470" transform="translate(-505.321 1297.912)" opacity="0.8">
        <g id="Group_469" data-name="Group 469">
          <g id="Group_468" data-name="Group 468">
            <path id="Path_537" data-name="Path 537" d="M-506.581,1285.969h-26.06v-13.8h26.06V1246.1h13.806v26.059h26.057v13.8h-26.057v26.059h-13.806Z" transform="translate(532.641 -1246.105)"/>
          </g>
        </g>
      </g>
      <g id="Group_473" data-name="Group 473" transform="translate(-520.86 1355.981)" opacity="0.6">
        <g id="Group_472" data-name="Group 472">
          <g id="Group_471" data-name="Group 471">
            <path id="Path_538" data-name="Path 538" d="M-523.531,1315h-19.545v-10.354h19.545V1285.1h10.354v19.543h19.543V1315h-19.543v19.545h-10.354Z" transform="translate(543.076 -1285.101)"/>
          </g>
        </g>
      </g>
      <g id="Group_476" data-name="Group 476" transform="translate(-588.497 1414.049)" opacity="0.4">
        <g id="Group_475" data-name="Group 475">
          <g id="Group_474" data-name="Group 474">
            <path id="Path_539" data-name="Path 539" d="M-575.467,1344.028H-588.5v-6.9h13.03V1324.1h6.9v13.03h13.03v6.9h-13.03v13.03h-6.9Z" transform="translate(588.497 -1324.096)"/>
          </g>
        </g>
      </g>
      <g id="Group_479" data-name="Group 479" transform="translate(-437.684 1339.501)">
        <g id="Group_478" data-name="Group 478">
          <g id="Group_477" data-name="Group 477">
            <path id="Path_540" data-name="Path 540" d="M-454.646,1323.863H-487.22v-17.256h32.574v-32.573h17.256v32.573h32.571v17.256H-437.39v32.574h-17.256Z" transform="translate(487.22 -1274.034)"/>
          </g>
        </g>
      </g>
      <g id="Group_482" data-name="Group 482" transform="translate(-505.321 1397.569)" opacity="0.8">
        <g id="Group_481" data-name="Group 481">
          <g id="Group_480" data-name="Group 480">
            <path id="Path_541" data-name="Path 541" d="M-506.581,1352.892h-26.06v-13.8h26.06v-26.06h13.806v26.06h26.057v13.8h-26.057v26.06h-13.806Z" transform="translate(532.641 -1313.029)"/>
          </g>
        </g>
      </g>
      <g id="Group_485" data-name="Group 485" transform="translate(-546.909 1455.639)" opacity="0.6">
        <g id="Group_484" data-name="Group 484">
          <g id="Group_483" data-name="Group 483">
            <path id="Path_542" data-name="Path 542" d="M-541.024,1381.922h-19.545v-10.354h19.545v-19.543h10.354v19.543h19.543v10.354h-19.543v19.545h-10.354Z" transform="translate(560.569 -1352.025)"/>
          </g>
        </g>
      </g>
      <g id="Group_488" data-name="Group 488" transform="translate(-588.497 1513.707)" opacity="0.4">
        <g id="Group_487" data-name="Group 487">
          <g id="Group_486" data-name="Group 486">
            <path id="Path_543" data-name="Path 543" d="M-575.467,1410.952H-588.5v-6.9h13.03v-13.03h6.9v13.03h13.03v6.9h-13.03v13.03h-6.9Z" transform="translate(588.497 -1391.02)"/>
          </g>
        </g>
      </g>
      <g id="Group_491" data-name="Group 491" transform="translate(-463.733 1439.159)">
        <g id="Group_490" data-name="Group 490">
          <g id="Group_489" data-name="Group 489">
            <path id="Path_544" data-name="Path 544" d="M-472.137,1390.787h-32.576v-17.256h32.576v-32.573h17.254v32.573h32.573v17.256h-32.573v32.573h-17.254Z" transform="translate(504.713 -1340.958)"/>
          </g>
        </g>
      </g>
      <g id="Group_494" data-name="Group 494" transform="translate(-505.321 1497.227)" opacity="0.8">
        <g id="Group_493" data-name="Group 493">
          <g id="Group_492" data-name="Group 492">
            <path id="Path_545" data-name="Path 545" d="M-506.581,1419.817h-26.06v-13.8h26.06v-26.06h13.806v26.06h26.057v13.8h-26.057v26.058h-13.806Z" transform="translate(532.641 -1379.953)"/>
          </g>
        </g>
      </g>
      <g id="Group_497" data-name="Group 497" transform="translate(-520.86 1555.295)" opacity="0.6">
        <g id="Group_496" data-name="Group 496">
          <g id="Group_495" data-name="Group 495">
            <path id="Path_546" data-name="Path 546" d="M-523.531,1448.846h-19.545v-10.354h19.545v-19.545h10.354v19.545h19.543v10.354h-19.543v19.543h-10.354Z" transform="translate(543.076 -1418.948)"/>
          </g>
        </g>
      </g>
      <g id="Group_500" data-name="Group 500" transform="translate(-437.684 1538.816)">
        <g id="Group_499" data-name="Group 499">
          <g id="Group_498" data-name="Group 498">
            <path id="Path_547" data-name="Path 547" d="M-454.646,1457.711H-487.22v-17.256h32.574v-32.573h17.256v32.573h32.571v17.256H-437.39v32.573h-17.256Z" transform="translate(487.22 -1407.882)"/>
          </g>
        </g>
      </g>
      <g id="Group_503" data-name="Group 503" transform="translate(-588.497 1214.734)" opacity="0.4">
        <g id="Group_502" data-name="Group 502">
          <g id="Group_501" data-name="Group 501">
            <path id="Path_548" data-name="Path 548" d="M-575.467,1210.18H-588.5v-6.9h13.03v-13.03h6.9v13.03h13.03v6.9h-13.03v13.03h-6.9Z" transform="translate(588.497 -1190.248)"/>
          </g>
        </g>
      </g>
    </g>
    <g id="Group_505" data-name="Group 505" transform="translate(-355.583 5348.218) rotate(180)" opacity="0.034">
      <g id="Group_452-2" data-name="Group 452" transform="translate(-437.684 1140.186)">
        <g id="Group_451-2" data-name="Group 451">
          <g id="Group_450-2" data-name="Group 450">
            <path id="Path_531-2" data-name="Path 531" d="M-454.646,1190.015H-487.22V1172.76h32.574v-32.574h17.256v32.574h32.571v17.254H-437.39v32.574h-17.256Z" transform="translate(487.22 -1140.186)"/>
          </g>
        </g>
      </g>
      <g id="Group_455-2" data-name="Group 455" transform="translate(-505.321 1198.255)" opacity="0.8">
        <g id="Group_454-2" data-name="Group 454">
          <g id="Group_453-2" data-name="Group 453">
            <path id="Path_532-2" data-name="Path 532" d="M-506.581,1219.044h-26.06v-13.8h26.06v-26.058h13.806v26.058h26.057v13.8h-26.057v26.06h-13.806Z" transform="translate(532.641 -1179.182)"/>
          </g>
        </g>
      </g>
      <g id="Group_458-2" data-name="Group 458" transform="translate(-546.909 1256.324)" opacity="0.6">
        <g id="Group_457-2" data-name="Group 457">
          <g id="Group_456-2" data-name="Group 456">
            <path id="Path_533-2" data-name="Path 533" d="M-541.024,1248.074h-19.545v-10.352h19.545v-19.545h10.354v19.545h19.543v10.352h-19.543v19.545h-10.354Z" transform="translate(560.569 -1218.177)"/>
          </g>
        </g>
      </g>
      <g id="Group_461-2" data-name="Group 461" transform="translate(-520.86 1156.666)" opacity="0.6">
        <g id="Group_460-2" data-name="Group 460">
          <g id="Group_459-2" data-name="Group 459">
            <path id="Path_534-2" data-name="Path 534" d="M-523.531,1181.15h-19.545V1170.8h19.545v-19.543h10.354V1170.8h19.543v10.354h-19.543v19.545h-10.354Z" transform="translate(543.076 -1151.253)"/>
          </g>
        </g>
      </g>
      <g id="Group_464-2" data-name="Group 464" transform="translate(-588.497 1314.392)" opacity="0.4">
        <g id="Group_463-2" data-name="Group 463">
          <g id="Group_462-2" data-name="Group 462">
            <path id="Path_535-2" data-name="Path 535" d="M-575.467,1277.1H-588.5v-6.9h13.03v-13.03h6.9v13.03h13.03v6.9h-13.03v13.03h-6.9Z" transform="translate(588.497 -1257.172)"/>
          </g>
        </g>
      </g>
      <g id="Group_467-2" data-name="Group 467" transform="translate(-463.733 1239.844)">
        <g id="Group_466-2" data-name="Group 466">
          <g id="Group_465-2" data-name="Group 465">
            <path id="Path_536-2" data-name="Path 536" d="M-472.137,1256.939h-32.576v-17.255h32.576V1207.11h17.254v32.574h32.573v17.255h-32.573v32.574h-17.254Z" transform="translate(504.713 -1207.11)"/>
          </g>
        </g>
      </g>
      <g id="Group_470-2" data-name="Group 470" transform="translate(-505.321 1297.912)" opacity="0.8">
        <g id="Group_469-2" data-name="Group 469">
          <g id="Group_468-2" data-name="Group 468">
            <path id="Path_537-2" data-name="Path 537" d="M-506.581,1285.969h-26.06v-13.8h26.06V1246.1h13.806v26.059h26.057v13.8h-26.057v26.059h-13.806Z" transform="translate(532.641 -1246.105)"/>
          </g>
        </g>
      </g>
      <g id="Group_473-2" data-name="Group 473" transform="translate(-520.86 1355.981)" opacity="0.6">
        <g id="Group_472-2" data-name="Group 472">
          <g id="Group_471-2" data-name="Group 471">
            <path id="Path_538-2" data-name="Path 538" d="M-523.531,1315h-19.545v-10.354h19.545V1285.1h10.354v19.543h19.543V1315h-19.543v19.545h-10.354Z" transform="translate(543.076 -1285.101)"/>
          </g>
        </g>
      </g>
      <g id="Group_476-2" data-name="Group 476" transform="translate(-588.497 1414.049)" opacity="0.4">
        <g id="Group_475-2" data-name="Group 475">
          <g id="Group_474-2" data-name="Group 474">
            <path id="Path_539-2" data-name="Path 539" d="M-575.467,1344.028H-588.5v-6.9h13.03V1324.1h6.9v13.03h13.03v6.9h-13.03v13.03h-6.9Z" transform="translate(588.497 -1324.096)"/>
          </g>
        </g>
      </g>
      <g id="Group_479-2" data-name="Group 479" transform="translate(-437.684 1339.501)">
        <g id="Group_478-2" data-name="Group 478">
          <g id="Group_477-2" data-name="Group 477">
            <path id="Path_540-2" data-name="Path 540" d="M-454.646,1323.863H-487.22v-17.256h32.574v-32.573h17.256v32.573h32.571v17.256H-437.39v32.574h-17.256Z" transform="translate(487.22 -1274.034)"/>
          </g>
        </g>
      </g>
      <g id="Group_482-2" data-name="Group 482" transform="translate(-505.321 1397.569)" opacity="0.8">
        <g id="Group_481-2" data-name="Group 481">
          <g id="Group_480-2" data-name="Group 480">
            <path id="Path_541-2" data-name="Path 541" d="M-506.581,1352.892h-26.06v-13.8h26.06v-26.06h13.806v26.06h26.057v13.8h-26.057v26.06h-13.806Z" transform="translate(532.641 -1313.029)"/>
          </g>
        </g>
      </g>
      <g id="Group_485-2" data-name="Group 485" transform="translate(-546.909 1455.639)" opacity="0.6">
        <g id="Group_484-2" data-name="Group 484">
          <g id="Group_483-2" data-name="Group 483">
            <path id="Path_542-2" data-name="Path 542" d="M-541.024,1381.922h-19.545v-10.354h19.545v-19.543h10.354v19.543h19.543v10.354h-19.543v19.545h-10.354Z" transform="translate(560.569 -1352.025)"/>
          </g>
        </g>
      </g>
      <g id="Group_488-2" data-name="Group 488" transform="translate(-588.497 1513.707)" opacity="0.4">
        <g id="Group_487-2" data-name="Group 487">
          <g id="Group_486-2" data-name="Group 486">
            <path id="Path_543-2" data-name="Path 543" d="M-575.467,1410.952H-588.5v-6.9h13.03v-13.03h6.9v13.03h13.03v6.9h-13.03v13.03h-6.9Z" transform="translate(588.497 -1391.02)"/>
          </g>
        </g>
      </g>
      <g id="Group_491-2" data-name="Group 491" transform="translate(-463.733 1439.159)">
        <g id="Group_490-2" data-name="Group 490">
          <g id="Group_489-2" data-name="Group 489">
            <path id="Path_544-2" data-name="Path 544" d="M-472.137,1390.787h-32.576v-17.256h32.576v-32.573h17.254v32.573h32.573v17.256h-32.573v32.573h-17.254Z" transform="translate(504.713 -1340.958)"/>
          </g>
        </g>
      </g>
      <g id="Group_494-2" data-name="Group 494" transform="translate(-505.321 1497.227)" opacity="0.8">
        <g id="Group_493-2" data-name="Group 493">
          <g id="Group_492-2" data-name="Group 492">
            <path id="Path_545-2" data-name="Path 545" d="M-506.581,1419.817h-26.06v-13.8h26.06v-26.06h13.806v26.06h26.057v13.8h-26.057v26.058h-13.806Z" transform="translate(532.641 -1379.953)"/>
          </g>
        </g>
      </g>
      <g id="Group_497-2" data-name="Group 497" transform="translate(-520.86 1555.295)" opacity="0.6">
        <g id="Group_496-2" data-name="Group 496">
          <g id="Group_495-2" data-name="Group 495">
            <path id="Path_546-2" data-name="Path 546" d="M-523.531,1448.846h-19.545v-10.354h19.545v-19.545h10.354v19.545h19.543v10.354h-19.543v19.543h-10.354Z" transform="translate(543.076 -1418.948)"/>
          </g>
        </g>
      </g>
      <g id="Group_500-2" data-name="Group 500" transform="translate(-437.684 1538.816)">
        <g id="Group_499-2" data-name="Group 499">
          <g id="Group_498-2" data-name="Group 498">
            <path id="Path_547-2" data-name="Path 547" d="M-454.646,1457.711H-487.22v-17.256h32.574v-32.573h17.256v32.573h32.571v17.256H-437.39v32.573h-17.256Z" transform="translate(487.22 -1407.882)"/>
          </g>
        </g>
      </g>
      <g id="Group_503-2" data-name="Group 503" transform="translate(-588.497 1214.734)" opacity="0.4">
        <g id="Group_502-2" data-name="Group 502">
          <g id="Group_501-2" data-name="Group 501">
            <path id="Path_548-2" data-name="Path 548" d="M-575.467,1210.18H-588.5v-6.9h13.03v-13.03h6.9v13.03h13.03v6.9h-13.03v13.03h-6.9Z" transform="translate(588.497 -1190.248)"/>
          </g>
        </g>
      </g>
    </g>
  </g>
</svg>
