<svg xmlns="http://www.w3.org/2000/svg" width="358.631" height="51.375" viewBox="0 0 358.631 51.375">
  <g id="Layer_1-2" transform="translate(-278 15)">
    <g id="Group_1975" data-name="Group 1975" transform="translate(278 -15)">
      <g id="a">
        <g id="Group_1974" data-name="Group 1974">
          <path id="Path_2467" data-name="Path 2467" d="M216.97,22.336a8.554,8.554,0,0,1,5.118,1.488,8.058,8.058,0,0,1,2.944,4.1H236a18.218,18.218,0,0,0-6.575-10.5q-4.9-3.746-12.387-3.746a20.415,20.415,0,0,0-10.321,2.582,18.124,18.124,0,0,0-7.045,7.269,22.565,22.565,0,0,0-2.544,10.937,22.565,22.565,0,0,0,2.544,10.937,18.222,18.222,0,0,0,7.045,7.269,20.415,20.415,0,0,0,10.321,2.582A19.506,19.506,0,0,0,229.4,51.41a18.574,18.574,0,0,0,6.613-10.39H225.04c-1.264,3.684-3.946,5.527-8.07,5.527a8.358,8.358,0,0,1-6.9-3.16c-1.7-2.1-2.544-5.079-2.544-8.9s.848-6.868,2.544-8.972a8.4,8.4,0,0,1,6.9-3.16h0Z" transform="translate(-45.185 -4.305)" fill="#1d1d1b"/>
          <path id="Path_2468" data-name="Path 2468" d="M263.674,20.609V14.358H253.5v40.25h10.174V34.553c0-3.723.809-6.351,2.436-7.847s4.031-2.251,7.23-2.251h2.69V13.78a13.955,13.955,0,0,0-12.348,6.829Z" transform="translate(-58.106 -4.328)" fill="#1d1d1b"/>
          <path id="Path_2469" data-name="Path 2469" d="M314.895,16.154a21.155,21.155,0,0,0-10.282-2.474,21.74,21.74,0,0,0-10.537,2.544,17.731,17.731,0,0,0-7.122,7.269A22.8,22.8,0,0,0,284.41,34.46a22.334,22.334,0,0,0,2.574,10.9,18.18,18.18,0,0,0,7.191,7.307A21.009,21.009,0,0,0,304.6,55.248,19.46,19.46,0,0,0,316.737,51.5a18.279,18.279,0,0,0,6.683-9.558H312.451a8.3,8.3,0,0,1-8.07,4.864,9.4,9.4,0,0,1-6.613-2.474,10.05,10.05,0,0,1-3.052-6.829h29.429a24.151,24.151,0,0,0,.293-3.923,21.215,21.215,0,0,0-2.505-10.429,17.483,17.483,0,0,0-7.045-7.014h0ZM294.808,30.691a10.078,10.078,0,0,1,3.16-6.359,9.232,9.232,0,0,1,6.359-2.289,10.051,10.051,0,0,1,6.76,2.359,8.026,8.026,0,0,1,2.829,6.29Z" transform="translate(-65.191 -4.305)" fill="#1d1d1b"/>
          <path id="Path_2470" data-name="Path 2470" d="M353.088,1.618H342.844v9.719H338.05V19.5h4.794V38.439q0,12.207,12.864,12.2h6.39V42.263h-4.725a4.888,4.888,0,0,1-3.307-.888,3.7,3.7,0,0,1-.987-2.876v-19h9.01V11.337h-9.01V1.61h0Z" transform="translate(-77.486 -0.369)" fill="#1d1d1b"/>
          <path id="Path_2471" data-name="Path 2471" d="M402.085,16.154A21.155,21.155,0,0,0,391.8,13.68a21.74,21.74,0,0,0-10.537,2.544,17.73,17.73,0,0,0-7.122,7.269A22.8,22.8,0,0,0,371.6,34.46a22.334,22.334,0,0,0,2.574,10.9,18.18,18.18,0,0,0,7.191,7.307,21.009,21.009,0,0,0,10.429,2.582A19.46,19.46,0,0,0,403.927,51.5a18.279,18.279,0,0,0,6.683-9.558H399.641a8.3,8.3,0,0,1-8.07,4.864,9.4,9.4,0,0,1-6.613-2.474,10.049,10.049,0,0,1-3.052-6.829h29.429a24.155,24.155,0,0,0,.293-3.923,21.216,21.216,0,0,0-2.505-10.429,17.484,17.484,0,0,0-7.045-7.014h0ZM382,30.691a10.078,10.078,0,0,1,3.16-6.359,9.232,9.232,0,0,1,6.359-2.289,10.051,10.051,0,0,1,6.76,2.359,8.026,8.026,0,0,1,2.829,6.29Z" transform="translate(-85.176 -4.305)" fill="#1d1d1b"/>
          <path id="Path_2472" data-name="Path 2472" d="M21.258,13.01a21.258,21.258,0,1,0,19.47,29.768H36.566a17.5,17.5,0,1,1,2.112-10.367h-23.7v3.738h27.54V34.284h0V34.2h0A21.275,21.275,0,0,0,21.266,13.025h0Z" transform="translate(0 -4.151)" fill="#1d833c"/>
          <path id="Path_2473" data-name="Path 2473" d="M131.034,13.01c-10.729,0-18.715,7.153-23.07,20.688-3.869,12-10.436,18.09-19.516,18.09a17.52,17.52,0,1,1,12.387-29.906l2.644-2.644a21.257,21.257,0,1,0-15.03,36.289c10.729,0,18.715-7.153,23.07-20.688,3.869-12,10.436-18.09,19.516-18.09A17.52,17.52,0,1,1,118.64,46.655L116,49.3a21.257,21.257,0,1,0,15.03-36.289h0Z" transform="translate(-15.401 -4.151)" fill="#1d833c"/>
          <path id="Path_2474" data-name="Path 2474" d="M454.9,7.122a13.607,13.607,0,0,0-5.087-5.234A14.3,14.3,0,0,0,442.433,0a14.575,14.575,0,0,0-7.415,1.888A13.47,13.47,0,0,0,429.9,7.122a15.114,15.114,0,0,0-1.85,7.484,14.965,14.965,0,0,0,1.85,7.446,13.527,13.527,0,0,0,5.118,5.2,15.426,15.426,0,0,0,14.791,0,13.557,13.557,0,0,0,5.087-5.2,14.986,14.986,0,0,0,1.85-7.446,15.2,15.2,0,0,0-1.85-7.484Zm-4,16.21a11.11,11.11,0,0,1-8.463,3.415,11.3,11.3,0,0,1-8.54-3.415,12.176,12.176,0,0,1-3.237-8.718A12.164,12.164,0,0,1,433.892,5.9a11.2,11.2,0,0,1,8.54-3.415A11.057,11.057,0,0,1,450.9,5.9a12.176,12.176,0,0,1,3.237,8.718A12.163,12.163,0,0,1,450.9,23.332Z" transform="translate(-98.115 0)" fill="#1d1d1b"/>
          <path id="Path_2475" data-name="Path 2475" d="M450.326,16.419a4.5,4.5,0,0,0,1.017-3.014,4.393,4.393,0,0,0-1.418-3.453A5.511,5.511,0,0,0,446.11,8.68h-6.76V24.3h3.122V18.13h1.673l4,6.174,3.708-.069L447.5,17.983a4.8,4.8,0,0,0,2.829-1.565h0Zm-7.854-.91v-4h3.415a2.841,2.841,0,0,1,1.673.47,1.7,1.7,0,0,1,.655,1.488,1.806,1.806,0,0,1-.655,1.526,2.652,2.652,0,0,1-1.673.509h-3.415Z" transform="translate(-100.705 -1.99)" fill="#1d1d1b"/>
        </g>
      </g>
    </g>
  </g>
</svg>
