<svg id="Group_1905" data-name="Group 1905" xmlns="http://www.w3.org/2000/svg" xmlns:xlink="http://www.w3.org/1999/xlink" width="613.779" height="69.679" viewBox="0 0 613.779 69.679">
  <defs>
    <clipPath id="clip-path">
      <rect id="Rectangle_370" data-name="Rectangle 370" width="613.779" height="69.679" fill="#fff"/>
    </clipPath>
  </defs>
  <rect id="Rectangle_359" data-name="Rectangle 359" width="14.521" height="54.795" transform="translate(318.795 0.181)" fill="#fff"/>
  <rect id="Rectangle_360" data-name="Rectangle 360" width="33.842" height="14.521" transform="translate(333.316 54.976)" fill="#fff"/>
  <path id="Path_1309" data-name="Path 1309" d="M672.64.3H624.276V69.612H672.64V55.091H638.8V14.817H672.64V55.091h14.522V.3Z" transform="translate(-241.692 -0.115)" fill="#fff"/>
  <path id="Path_1310" data-name="Path 1310" d="M752.06,23.991v54.8h48.364V64.264H766.582V23.991Z" transform="translate(-291.164 -9.288)" fill="#fff"/>
  <rect id="Rectangle_361" data-name="Rectangle 361" width="33.842" height="14.521" transform="translate(475.417 0.181)" fill="#fff"/>
  <path id="Path_1311" data-name="Path 1311" d="M406.928.3H392.406V69.612h48.359V55.091H406.928V42.215h33.838V27.693H406.928V14.817h33.838V.3Z" transform="translate(-151.922 -0.115)" fill="#fff"/>
  <rect id="Rectangle_362" data-name="Rectangle 362" width="14.521" height="12.876" transform="translate(288.852 42.1)" fill="#fff"/>
  <rect id="Rectangle_363" data-name="Rectangle 363" width="14.521" height="12.876" transform="translate(288.848 14.703)" fill="#fff"/>
  <rect id="Rectangle_364" data-name="Rectangle 364" width="14.522" height="69.316" transform="translate(524.685 0.181)" fill="#fff"/>
  <rect id="Rectangle_365" data-name="Rectangle 365" width="14.521" height="28.403" transform="translate(560.561 0.181)" fill="#fff"/>
  <rect id="Rectangle_366" data-name="Rectangle 366" width="25.38" height="7.261" transform="translate(588.399 32.216)" fill="#fff"/>
  <rect id="Rectangle_367" data-name="Rectangle 367" width="7.261" height="25.38" transform="translate(597.459 23.156)" fill="#fff"/>
  <rect id="Rectangle_368" data-name="Rectangle 368" width="14.521" height="26.391" transform="translate(560.561 43.107)" fill="#fff"/>
  <rect id="Rectangle_369" data-name="Rectangle 369" width="14.521" height="14.521" transform="translate(546.039 28.585)" fill="#fff"/>
  <g id="Group_1890" data-name="Group 1890" transform="translate(0 0)">
    <g id="Group_1889" data-name="Group 1889" clip-path="url(#clip-path)">
      <path id="Path_1312" data-name="Path 1312" d="M34.838,0A34.839,34.839,0,1,0,66.745,48.777H59.919a28.69,28.69,0,1,1,3.463-17H24.54V37.9H69.676V34.84h0V34.7l-.007,0A34.873,34.873,0,0,0,34.838,0" transform="translate(0 0)" fill="#fff"/>
      <path id="Path_1313" data-name="Path 1313" d="M243.127,0c-17.592,0-30.667,11.722-37.814,33.9-6.341,19.675-17.1,29.651-31.981,29.651a28.711,28.711,0,1,1,20.3-49.013l4.335-4.333a34.838,34.838,0,1,0-24.633,59.474c17.592,0,30.667-11.722,37.814-33.9,6.34-19.675,17.1-29.651,31.981-29.651a28.711,28.711,0,1,1-20.3,49.015l-4.33,4.333A34.839,34.839,0,1,0,243.127,0" transform="translate(-53.618 0)" fill="#fff"/>
    </g>
  </g>
</svg>
