<svg id="Group_1891" data-name="Group 1891" xmlns="http://www.w3.org/2000/svg" xmlns:xlink="http://www.w3.org/1999/xlink" width="392" height="44.501" viewBox="0 0 392 44.501">
  <defs>
    <clipPath id="clip-path">
      <rect id="Rectangle_370" data-name="Rectangle 370" width="392" height="44.501" fill="none"/>
    </clipPath>
  </defs>
  <rect id="Rectangle_359" data-name="Rectangle 359" width="9.274" height="34.996" transform="translate(203.603 0.116)" fill="#008e43"/>
  <rect id="Rectangle_360" data-name="Rectangle 360" width="21.614" height="9.274" transform="translate(212.878 35.112)" fill="#008e43"/>
  <path id="Path_1309" data-name="Path 1309" d="M655.165.3H624.276v44.27h30.888V35.292H633.551V9.57h21.614V35.292h9.275V.3Z" transform="translate(-379.933 -0.18)" fill="#008e43"/>
  <path id="Path_1310" data-name="Path 1310" d="M752.06,23.991v35h30.888V49.712H761.334V23.991Z" transform="translate(-457.702 -14.601)" fill="#008e43"/>
  <rect id="Rectangle_361" data-name="Rectangle 361" width="21.614" height="9.274" transform="translate(303.633 0.116)" fill="#008e43"/>
  <path id="Path_1311" data-name="Path 1311" d="M401.681.3h-9.274v44.27h30.886V35.292H401.681V27.068h21.611V17.794H401.681V9.57h21.611V.3Z" transform="translate(-238.818 -0.18)" fill="#008e43"/>
  <rect id="Rectangle_362" data-name="Rectangle 362" width="9.274" height="8.223" transform="translate(184.48 26.888)" fill="#008e43"/>
  <rect id="Rectangle_363" data-name="Rectangle 363" width="9.274" height="8.223" transform="translate(184.477 9.39)" fill="#008e43"/>
  <rect id="Rectangle_364" data-name="Rectangle 364" width="9.275" height="44.27" transform="translate(335.099 0.116)" fill="#008e43"/>
  <rect id="Rectangle_365" data-name="Rectangle 365" width="9.274" height="18.14" transform="translate(358.011 0.116)" fill="#008e43"/>
  <rect id="Rectangle_366" data-name="Rectangle 366" width="16.21" height="4.637" transform="translate(375.79 20.575)" fill="#008e43"/>
  <rect id="Rectangle_367" data-name="Rectangle 367" width="4.637" height="16.21" transform="translate(381.577 14.789)" fill="#008e43"/>
  <rect id="Rectangle_368" data-name="Rectangle 368" width="9.274" height="16.855" transform="translate(358.011 27.531)" fill="#008e43"/>
  <rect id="Rectangle_369" data-name="Rectangle 369" width="9.274" height="9.274" transform="translate(348.737 18.256)" fill="#008e43"/>
  <g id="Group_1890" data-name="Group 1890" transform="translate(0 0)">
    <g id="Group_1889" data-name="Group 1889" clip-path="url(#clip-path)">
      <path id="Path_1312" data-name="Path 1312" d="M22.25,0A22.251,22.251,0,1,0,42.628,31.153h-4.36A18.324,18.324,0,1,1,40.48,20.294H15.673v3.913H44.5V22.251h0v-.09l0,0A22.273,22.273,0,0,0,22.25,0" transform="translate(0 0)" fill="#008e43"/>
      <path id="Path_1313" data-name="Path 1313" d="M205.319,0c-11.235,0-19.586,7.487-24.151,21.65-4.05,12.566-10.921,18.937-20.425,18.937a18.337,18.337,0,1,1,12.963-31.3l2.769-2.767A22.25,22.25,0,1,0,160.743,44.5c11.235,0,19.586-7.487,24.151-21.65,4.049-12.566,10.921-18.937,20.425-18.937a18.337,18.337,0,1,1-12.968,31.3l-2.766,2.767A22.251,22.251,0,1,0,205.319,0" transform="translate(-84.286 0)" fill="#008e43"/>
    </g>
  </g>
</svg>
