<svg xmlns="http://www.w3.org/2000/svg" width="68.299" height="74.5" viewBox="0 0 68.299 74.5">
  <g id="Group_1899" data-name="Group 1899" transform="translate(-897 -1422)">
    <path id="Path_1327" data-name="Path 1327" d="M772.494,395.387V376.37h12.058v19h19.861v11.644H784.552v19.1H772.494v-19.1H752.53V395.37h19.964Z" transform="translate(160.886 1070.383)" fill="#fff"/>
    <path id="Path_1328" data-name="Path 1328" d="M752.48,362c6.994,1.929,11.954,5.839,14.814,12.127,2.928,6.425,1.895,12.626-1.671,18.569-.327-6.356-.069-12.833-4.875-18a44.808,44.808,0,0,1,1.378,20.033c-1.12-1.12-2.153-2.067-3.083-3.1a25.993,25.993,0,0,1-5.064-7.39,12.576,12.576,0,0,1-1.051-7.028,31.621,31.621,0,0,0-.448-15.193Z" transform="translate(160.85 1060)" fill="#fff"/>
    <path id="Path_1329" data-name="Path 1329" d="M743,376.94c1.4,5.013,4.186,8.578,8.7,10.628,4.616,2.1,9.078,1.361,13.332-1.206-4.565-.224-9.216-.052-12.919-3.5a32.1,32.1,0,0,0,14.383.982c-.81-.81-1.481-1.55-2.222-2.2a18.748,18.748,0,0,0-5.305-3.635,8.988,8.988,0,0,0-5.047-.758,22.974,22.974,0,0,1-10.9-.31Z" transform="translate(154 1070.795)" fill="#fff"/>
  </g>
</svg>
