<svg xmlns="http://www.w3.org/2000/svg" width="33.048" height="36.049" viewBox="0 0 33.048 36.049">
  <g id="Group_1913" data-name="Group 1913" transform="translate(-897 -1422)">
    <path id="Path_1327" data-name="Path 1327" d="M762.19,385.572v-9.2h5.835v9.193h9.61V391.2h-9.61v9.243H762.19V391.2h-9.66v-5.634h9.66Z" transform="translate(152.413 1057.607)" fill="#119d57"/>
    <path id="Path_1328" data-name="Path 1328" d="M752.48,362a10.409,10.409,0,0,1,7.168,5.868c1.417,3.109.917,6.11-.809,8.985-.158-3.076-.033-6.21-2.359-8.71a21.683,21.683,0,0,1,.667,9.694c-.542-.542-1.042-1-1.492-1.5a12.574,12.574,0,0,1-2.451-3.576,6.085,6.085,0,0,1-.508-3.4,15.3,15.3,0,0,0-.217-7.351Z" transform="translate(152.422 1060)" fill="#119d57"/>
    <path id="Path_1329" data-name="Path 1329" d="M743,376.94a7.48,7.48,0,0,0,4.209,5.143,6.6,6.6,0,0,0,6.451-.583c-2.209-.108-4.459-.025-6.251-1.692a15.53,15.53,0,0,0,6.96.475c-.392-.392-.717-.75-1.075-1.067a9.072,9.072,0,0,0-2.567-1.759,4.35,4.35,0,0,0-2.442-.367,11.116,11.116,0,0,1-5.276-.15Z" transform="translate(154 1057.513)" fill="#119d57"/>
  </g>
</svg>
