<svg id="Group_1056" data-name="Group 1056" xmlns="http://www.w3.org/2000/svg" xmlns:xlink="http://www.w3.org/1999/xlink" width="40" height="40" viewBox="0 0 40 40">
  <defs>
    <clipPath id="clip-path">
      <rect id="Rectangle_563" data-name="Rectangle 563" width="40" height="40" fill="#fff"/>
    </clipPath>
  </defs>
  <g id="Group_796" data-name="Group 796" clip-path="url(#clip-path)">
    <path id="Path_579" data-name="Path 579" d="M39.492,30.794c-1.26-1.057-8.65-5.736-9.878-5.522-.577.1-1.018.594-2.2,2a16.851,16.851,0,0,1-1.793,1.942A15.511,15.511,0,0,1,22.2,27.948a21.192,21.192,0,0,1-9.78-9.783,15.511,15.511,0,0,1-1.269-3.423,16.851,16.851,0,0,1,1.942-1.793c1.407-1.181,1.9-1.619,2-2.2.215-1.231-4.469-8.618-5.522-9.878C9.132.35,8.731,0,8.218,0,6.73,0,0,8.321,0,9.4c0,.088.144,8.751,11.085,19.882C22.216,40.222,30.879,40.367,30.967,40.367c1.078,0,9.4-6.73,9.4-8.218C40.367,31.636,40.016,31.235,39.492,30.794Z" transform="translate(-0.657 -0.657)" fill="#fff"/>
    <path id="Path_580" data-name="Path 580" d="M248.65,91.533h2.883A11.546,11.546,0,0,0,240,80v2.883a8.659,8.659,0,0,1,8.65,8.65" transform="translate(-219.032 -73.449)" fill="#fff"/>
    <path id="Path_581" data-name="Path 581" d="M255.858,18.742h2.883A18.763,18.763,0,0,0,240,0V2.883a15.877,15.877,0,0,1,15.858,15.858" transform="translate(-219.032 -0.657)" fill="#fff"/>
  </g>
</svg>
