<svg id="Group_642" data-name="Group 642" xmlns="http://www.w3.org/2000/svg" width="8.135" height="7.089" viewBox="0 0 8.135 7.089">
  <path id="Stroke_5" data-name="Stroke 5" d="M7.182,0a.9.9,0,0,1,.953.831.878.878,0,0,1-.824.823l-.129.008H.953A.9.9,0,0,1,0,.831.878.878,0,0,1,.824.008L.953,0Z" transform="translate(0 2.713)" fill="#2d3052"/>
  <path id="Stroke_7" data-name="Stroke 7" d="M.953,0A.92.92,0,0,1,1.9.718l.009.113V6.259a.9.9,0,0,1-.953.831.92.92,0,0,1-.944-.718L0,6.259V.831A.9.9,0,0,1,.953,0Z" transform="translate(3.115)" fill="#2d3052"/>
</svg>
