<svg xmlns="http://www.w3.org/2000/svg" width="26.545" height="26.544" viewBox="0 0 26.545 26.544"><g transform="translate(6 2)"><path d="M-765.661-19.943h-.916c0-.009,0-.017,0-.026v-1.747a.8.8,0,0,0-.8-.8h-.057c0-.009,0-.017,0-.026v-1.747a.8.8,0,0,0-.8-.8h-.914v-6.953h1.3l.218.189a.819.819,0,0,0,1.154-.082l.563-.649A.819.819,0,0,0-766-33.746l-11.6-10.046a.822.822,0,0,0-1.072,0l-9.526,8.255a.389.389,0,0,0-.039.549.389.389,0,0,0,.548.039l9.526-8.255a.041.041,0,0,1,.053,0l11.6,10.046a.041.041,0,0,1,0,.057l-.562.649a.041.041,0,0,1-.057,0l-10.47-9.071a.822.822,0,0,0-1.072,0L-790-31.7a.039.039,0,0,1-.029.01.039.039,0,0,1-.028-.014l-.563-.649a.041.041,0,0,1,0-.057l1.749-1.516a.389.389,0,0,0,.039-.549.389.389,0,0,0-.549-.039L-791.121-33a.813.813,0,0,0-.28.56.813.813,0,0,0,.2.594l.563.649a.813.813,0,0,0,.56.28l.06,0a.812.812,0,0,0,.535-.2l1.078-.934h1.3v10.388h-.055a.8.8,0,0,0-.8.8v.914H-790.6a.8.8,0,0,0-.8.8v.888a.8.8,0,0,0,.8.8h2.243a.389.389,0,0,0,.389-.389.389.389,0,0,0-.389-.389H-790.6a.026.026,0,0,1-.026-.026v-.888a.026.026,0,0,1,.026-.026h24.938a.026.026,0,0,1,.026.026v.888a.026.026,0,0,1-.026.026H-786.8a.389.389,0,0,0-.389.389.389.389,0,0,0,.389.389h21.14a.8.8,0,0,0,.8-.8v-.888a.8.8,0,0,0-.8-.8Zm-2.551-4.35v1.747a.026.026,0,0,1-.026.026h-.914v-1.8h.914A.026.026,0,0,1-768.212-24.293Zm-7.729,4.35h-7.813v-.914a.8.8,0,0,0-.8-.8h-.055v-4.376h12.965v.94h-2.632a.8.8,0,0,0-.8.8v1.747c0,.009,0,.017,0,.026h-.057a.8.8,0,0,0-.8.8v1.747c0,.009,0,.017,0,.026Zm-4.3-12.106v.055a.8.8,0,0,0,.8.8h2.606a.8.8,0,0,0,.8-.8v-.055h4.376v3.517h-12.965v-3.517Zm3.41-3.355h-.055v-4.47l6.151,5.329h-5.292V-34.6A.8.8,0,0,0-776.827-35.4Zm0,.778a.026.026,0,0,1,.026.026v2.606a.026.026,0,0,1-.026.026h-2.606a.026.026,0,0,1-.026-.026V-34.6a.026.026,0,0,1,.026-.026Zm-2.606-.778a.8.8,0,0,0-.8.8v.055h-5.292l6.15-5.329v4.47Zm9.5,12.884h-2.658v-1.8h2.658Zm-14.683-5.235h12.965v.94h-12.965Zm10.307,5.209v-1.747a.026.026,0,0,1,.026-.026h.914v1.8h-.914A.026.026,0,0,1-774.306-22.546Zm5.235.8v1.8h-4.376v-1.8Zm-.859-3.354h-.94v-6.953h.94Zm-6.094-7.73v-.94h6.19l1.085.94Zm-2.08-8.105.443.384V-35.4h-.94v-5.144l.444-.384a.041.041,0,0,1,.053,0Zm-8.322,7.165h6.189v.94h-7.274Zm.1,1.718h.94v10.388h-.94Zm-.859,12.106v-.914a.026.026,0,0,1,.026-.026h2.606a.026.026,0,0,1,.026.026v.914Zm12.025-.026v-1.747a.026.026,0,0,1,.026-.026h.914v1.8h-.914a.026.026,0,0,1-.026-.026Zm6.871.026v-1.8h.914a.026.026,0,0,1,.026.026v1.747a.026.026,0,0,1-.026.026Z" transform="translate(785.403 41.992)"/></g></svg>