<svg xmlns="http://www.w3.org/2000/svg" width="53" height="53" viewBox="0 0 53 53">
  <g id="Union_1" data-name="Union 1" transform="translate(6172 19)" fill="none">
    <path d="M-6152.195,34V14.194H-6172V.805h19.806V-19h13.389V.805H-6119V14.194h-19.805V34Z" stroke="none"/>
    <path d="M -6139.8056640625 33.00011444091797 L -6139.8056640625 14.19444274902344 L -6139.8056640625 13.19444274902344 L -6138.8056640625 13.19444274902344 L -6120.00048828125 13.19444274902344 L -6120.00048828125 1.805162668228149 L -6138.8056640625 1.805162668228149 L -6139.8056640625 1.805162668228149 L -6139.8056640625 0.8051626682281494 L -6139.8056640625 -17.99963760375977 L -6151.19482421875 -17.99963760375977 L -6151.19482421875 0.8051626682281494 L -6151.19482421875 1.805162668228149 L -6152.19482421875 1.805162668228149 L -6171.00048828125 1.805162668228149 L -6171.00048828125 13.19444274902344 L -6152.19482421875 13.19444274902344 L -6151.19482421875 13.19444274902344 L -6151.19482421875 14.19444274902344 L -6151.19482421875 33.00011444091797 L -6139.8056640625 33.00011444091797 M -6138.8056640625 34.00011444091797 L -6152.19482421875 34.00011444091797 L -6152.19482421875 14.19444274902344 L -6172.00048828125 14.19444274902344 L -6172.00048828125 0.8051626682281494 L -6152.19482421875 0.8051626682281494 L -6152.19482421875 -18.99963760375977 L -6138.8056640625 -18.99963760375977 L -6138.8056640625 0.8051626682281494 L -6119.00048828125 0.8051626682281494 L -6119.00048828125 14.19444274902344 L -6138.8056640625 14.19444274902344 L -6138.8056640625 34.00011444091797 Z" stroke="none" fill="#039c57"/>
  </g>
</svg>
