<svg id="Layer_2" xmlns="http://www.w3.org/2000/svg" viewBox="0 0 512 512"><defs><style>.cls-1{fill:#012b16;}.cls-2{fill:#05080e;}.cls-3{fill:#ffd300;}.cls-4{fill:#ffccbd;}.cls-5{fill:#e5e5e5;}.cls-6{fill:#009c57;}.cls-7{fill:#9dcfff;}.cls-8{fill:#c5805c;}.cls-9{fill:#c6805d;}.cls-10{fill:#212121;}.cls-11{fill:#494949;}</style></defs><g id="Capa_1"><g><circle class="cls-3" cx="256" cy="256" r="256"/><circle class="cls-6" cx="256" cy="256" r="256"/><g><path class="cls-11" d="M256,443.67l-81.34-67.81h-25.51c-28.63,0-51.85,23.21-51.85,51.85v29.17c39.68,31.39,88.88,51.26,142.57,54.6h32.26l-16.13-67.81Z"/><path class="cls-1" d="M272.13,511.48l-16.13-67.81-81.34-67.81"/></g><path class="cls-8" d="M144.2,132.27h223.6v98.03c.49,21.69-1.07,48.8-8.08,79.08-3.59,15.48-8.04,29.38-12.71,41.58l-182.59,1.43c-3.42-10.68-6.61-22.11-9.41-34.26-7.47-32.43-10.31-62.2-10.81-87.84v-98.03Z"/><path class="cls-9" d="M347.01,350.97l20.79-120.66v-98.03h-111.8v219.75c30.34-.35,60.68-.7,91.01-1.05Z"/><path class="cls-4" d="M158.36,131.87v118.64c0,49.62,43.6,89.85,97.38,89.85s97.38-40.23,97.38-89.85v-118.64H158.36Z"/><path class="cls-11" d="M362.85,375.86h-25.51l-81.34,30v105.62h16.13c53.68-3.34,102.89-23.21,142.57-54.6v-29.17c0-28.63-23.21-51.85-51.85-51.85h0Z"/><path class="cls-5" d="M308.71,375.86l-52.71,30-52.71-30h-49.46c-1.29,37.73-2.57,75.47-3.86,113.2,20.25,9.19,57.55,22.94,106.03,22.94,50.45,0,88.99-14.9,109.31-24.46-.82-37.23-1.64-74.45-2.46-111.68h-54.14Z"/><path class="cls-4" d="M286.28,375.86v-69.01h-60.56v69.01h-22.43v5.8c0,29.11,23.6,52.71,52.71,52.71s52.71-23.6,52.71-52.71v-5.8h-22.43Z"/><path class="cls-9" d="M358.97,144.55c1.33-44.17-31.62-72.76-69.62-82.38-59.65-15.32-136.23,11.73-136.36,82.15v45.12c.49,.12,90.29-.09,93.98,0,23.2,0,42.11-19.3,42.95-43.46,3.2,20.21,19.28,24.63,35.17,24.63h18.81l15.12,10.41-.04-36.46Z"/><path class="cls-7" d="M255.91,442.95c.06,.27,.12,.55,.18,.82-.06-.27-.12-.55-.18-.82Z"/><g><path class="cls-5" d="M257,65.52c-52.85,0-109.72,38.79-109.72,123.95h-15c0-42.65,13.43-78.57,38.84-103.9,22.68-22.6,53.18-35.05,85.89-35.05l3.27,6.76-3.27,8.24Z"/><path class="cls-5" d="M342.89,85.57c-22.68-22.6-53.18-35.05-85.89-35.05-.33,0-.67,0-1,.01v15c.33,0,.67-.01,1-.01,52.85,0,109.73,38.79,109.73,123.95h15c0-42.65-13.43-78.57-38.84-103.9Z"/><path class="cls-10" d="M159.66,261.99c-24.09,0-43.61-20.49-43.61-45.77s19.53-45.77,43.61-45.77l10,45.77-10,45.77Z"/><path class="cls-5" d="M159.66,170.45h15v91.54h-15v-91.54Z"/><g><path class="cls-10" d="M352.34,170.45l-10,45.77,10,45.77c2.42,0,4.79-.22,7.1-.61v14.43h-49.16v-1.21c0-4.02-3.26-7.27-7.27-7.27h-23.52c-4.02,0-7.27,3.26-7.27,7.27v17.42c0,4.02,3.26,7.27,7.27,7.27h23.52c4.02,0,7.27-3.26,7.27-7.27v-1.21h64.16v-35.14c12.87-7.96,21.51-22.64,21.51-39.46,0-25.28-19.53-45.77-43.61-45.77h0Z"/><path class="cls-5" d="M337.34,170.45h15v91.54h-15v-91.54Z"/></g></g><path class="cls-4" d="M286.28,375.86v-69.01h-30.28v127.53c29.11,0,52.71-23.6,52.71-52.71v-5.8h-22.43Z"/><g><path class="cls-2" d="M313.34,474.2l-2.83-2.35,2.36-2.84c.88-1.07,1.34-2.38,1.34-3.9v-2.23h-9.7v3.04c0,1.35-.68,2.02-2.02,2.02h-34.32v-9.43h31.96v-8.77h-41.67v46.52h45.79c7.54,0,11.33-3.77,11.33-11.32v-5.34c0-2.39-.75-4.18-2.23-5.4Zm-7.48,11.26c0,1.36-.67,2.03-2.03,2.03h-35.66v-10.79h35.66c1.36,0,2.03,.67,2.03,2.03v6.73Z"/><polygon class="cls-6" points="343.96 449.71 343.96 458.48 328.62 458.48 328.62 473.82 319.85 473.82 319.85 458.48 304.51 458.48 304.51 449.71 319.85 449.71 319.85 434.37 328.62 434.37 328.62 449.71 343.96 449.71"/></g></g></g></svg>