<svg xmlns="http://www.w3.org/2000/svg" width="260" height="37.246" viewBox="0 0 260 37.246">
  <g id="Layer_1-2" transform="translate(-278 15)">
    <g id="Group_1971" data-name="Group 1971" transform="translate(278 -15)">
      <g id="a">
        <g id="Group_1970" data-name="Group 1970">
          <path id="Path_2449" data-name="Path 2449" d="M211.514,19.955a6.2,6.2,0,0,1,3.71,1.078,5.842,5.842,0,0,1,2.135,2.973h7.952a13.208,13.208,0,0,0-4.767-7.611,14.367,14.367,0,0,0-8.98-2.716,14.8,14.8,0,0,0-7.482,1.872,13.14,13.14,0,0,0-5.107,5.27,16.359,16.359,0,0,0-1.844,7.929,16.359,16.359,0,0,0,1.844,7.929,13.211,13.211,0,0,0,5.107,5.27,14.8,14.8,0,0,0,7.482,1.872,14.142,14.142,0,0,0,8.958-2.788,13.466,13.466,0,0,0,4.795-7.533h-7.952c-.916,2.671-2.861,4.007-5.851,4.007a6.06,6.06,0,0,1-5-2.291,10.052,10.052,0,0,1-1.844-6.454,10.205,10.205,0,0,1,1.844-6.5,6.09,6.09,0,0,1,5-2.291h0Z" transform="translate(-86.973 -6.883)" fill="#fff"/>
          <path id="Path_2450" data-name="Path 2450" d="M260.876,18.731V14.2H253.5V43.38h7.376V28.84c0-2.7.587-4.6,1.766-5.689a7.485,7.485,0,0,1,5.242-1.632h1.95V13.78a10.117,10.117,0,0,0-8.952,4.951Z" transform="translate(-111.843 -6.927)" fill="#fff"/>
          <path id="Path_2451" data-name="Path 2451" d="M306.511,15.474a15.337,15.337,0,0,0-7.454-1.794,15.761,15.761,0,0,0-7.639,1.844,12.854,12.854,0,0,0-5.163,5.27,16.526,16.526,0,0,0-1.844,7.952,16.192,16.192,0,0,0,1.866,7.9,13.18,13.18,0,0,0,5.214,5.3,15.231,15.231,0,0,0,7.561,1.872,14.108,14.108,0,0,0,8.8-2.716,13.252,13.252,0,0,0,4.845-6.929h-7.952a6.019,6.019,0,0,1-5.851,3.526,6.817,6.817,0,0,1-4.794-1.794,7.286,7.286,0,0,1-2.213-4.951h21.335a17.51,17.51,0,0,0,.212-2.844,15.381,15.381,0,0,0-1.816-7.561,12.675,12.675,0,0,0-5.107-5.085h0ZM291.948,26.013a7.307,7.307,0,0,1,2.291-4.61,6.693,6.693,0,0,1,4.61-1.66,7.287,7.287,0,0,1,4.9,1.71,5.819,5.819,0,0,1,2.051,4.56Z" transform="translate(-125.481 -6.883)" fill="#fff"/>
          <path id="Path_2452" data-name="Path 2452" d="M348.952,1.615h-7.426V8.662H338.05v5.916h3.476V28.31q0,8.85,9.326,8.847h4.632V31.082h-3.425a3.543,3.543,0,0,1-2.4-.644,2.683,2.683,0,0,1-.715-2.085V14.578h6.532V8.662h-6.532V1.61h0Z" transform="translate(-149.147 -0.71)" fill="#fff"/>
          <path id="Path_2453" data-name="Path 2453" d="M393.7,15.474a15.337,15.337,0,0,0-7.454-1.794,15.761,15.761,0,0,0-7.639,1.844,12.854,12.854,0,0,0-5.163,5.27,16.526,16.526,0,0,0-1.844,7.952,16.191,16.191,0,0,0,1.866,7.9,13.18,13.18,0,0,0,5.214,5.3,15.231,15.231,0,0,0,7.561,1.872,14.108,14.108,0,0,0,8.8-2.716,13.252,13.252,0,0,0,4.845-6.929h-7.952a6.019,6.019,0,0,1-5.851,3.526,6.817,6.817,0,0,1-4.794-1.794,7.286,7.286,0,0,1-2.213-4.951h21.335a17.51,17.51,0,0,0,.212-2.844,15.381,15.381,0,0,0-1.816-7.561,12.675,12.675,0,0,0-5.107-5.085h0ZM379.138,26.013a7.306,7.306,0,0,1,2.291-4.61,6.693,6.693,0,0,1,4.61-1.66,7.286,7.286,0,0,1,4.9,1.71,5.818,5.818,0,0,1,2.051,4.56Z" transform="translate(-163.949 -6.883)" fill="#fff"/>
          <path id="Path_2454" data-name="Path 2454" d="M15.412,13.01A15.412,15.412,0,1,0,29.527,34.591H26.51a12.687,12.687,0,1,1,1.531-7.516H10.858v2.71H30.824V28.433h0v-.061h0a15.424,15.424,0,0,0-15.406-15.35h0Z" transform="translate(0 -6.588)" fill="#fff"/>
          <path id="Path_2455" data-name="Path 2455" d="M113.476,13.01c-7.779,0-13.568,5.186-16.725,15-2.805,8.7-7.566,13.115-14.149,13.115a12.7,12.7,0,1,1,8.98-21.682L93.5,17.525A15.411,15.411,0,1,0,82.6,43.834c7.779,0,13.568-5.186,16.725-15,2.805-8.7,7.566-13.115,14.149-13.115A12.7,12.7,0,1,1,104.49,37.4l-1.917,1.917a15.411,15.411,0,1,0,10.9-26.308h0Z" transform="translate(-29.644 -6.588)" fill="#fff"/>
          <path id="Path_2456" data-name="Path 2456" d="M447.513,5.163a9.865,9.865,0,0,0-3.688-3.794A10.365,10.365,0,0,0,438.477,0,10.566,10.566,0,0,0,433.1,1.369a9.766,9.766,0,0,0-3.71,3.794,10.957,10.957,0,0,0-1.341,5.426,10.85,10.85,0,0,0,1.341,5.4,9.807,9.807,0,0,0,3.71,3.766,11.184,11.184,0,0,0,10.723,0,9.828,9.828,0,0,0,3.688-3.766,10.865,10.865,0,0,0,1.341-5.4,11.017,11.017,0,0,0-1.341-5.426Zm-2.9,11.752a8.054,8.054,0,0,1-6.136,2.475,8.191,8.191,0,0,1-6.192-2.475,8.828,8.828,0,0,1-2.347-6.32,8.818,8.818,0,0,1,2.347-6.32A8.12,8.12,0,0,1,438.477,1.8a8.016,8.016,0,0,1,6.136,2.475,8.828,8.828,0,0,1,2.347,6.32A8.818,8.818,0,0,1,444.613,16.915Z" transform="translate(-188.854 0)" fill="#fff"/>
          <path id="Path_2457" data-name="Path 2457" d="M447.307,14.29a3.262,3.262,0,0,0,.738-2.185,3.185,3.185,0,0,0-1.028-2.5,4,4,0,0,0-2.766-.922h-4.9V20.007h2.263V15.531h1.213l2.9,4.476,2.688-.05-3.157-4.532a3.476,3.476,0,0,0,2.051-1.134h0Zm-5.694-.659v-2.9h2.475a2.06,2.06,0,0,1,1.213.341,1.234,1.234,0,0,1,.475,1.078,1.309,1.309,0,0,1-.475,1.106,1.923,1.923,0,0,1-1.213.369h-2.475Z" transform="translate(-193.84 -3.83)" fill="#fff"/>
        </g>
      </g>
    </g>
  </g>
</svg>
