<svg xmlns="http://www.w3.org/2000/svg" xmlns:xlink="http://www.w3.org/1999/xlink" width="264.183" height="39.744" viewBox="0 0 264.183 39.744">
  <defs>
    <clipPath id="clip-path">
      <rect id="Rectangle_756" data-name="Rectangle 756" width="264.183" height="39.744" fill="none"/>
    </clipPath>
  </defs>
  <g id="Group_1718" data-name="Group 1718" clip-path="url(#clip-path)">
    <path id="Path_1732" data-name="Path 1732" d="M45.285,8.6A6.262,6.262,0,0,1,49.037,9.7a5.94,5.94,0,0,1,2.149,3.024h8.051a13.49,13.49,0,0,0-4.809-7.687A14.594,14.594,0,0,0,45.358,2.3a14.908,14.908,0,0,0-7.577,1.894,13.459,13.459,0,0,0-5.173,5.319,16.586,16.586,0,0,0-1.858,8.014,16.586,16.586,0,0,0,1.858,8.014,13,13,0,0,0,5.173,5.319,14.814,14.814,0,0,0,7.577,1.894,14.549,14.549,0,0,0,9.071-2.805,13.582,13.582,0,0,0,4.845-7.614H51.223c-.911,2.7-2.914,4.044-5.9,4.044a6.125,6.125,0,0,1-5.064-2.331A10.146,10.146,0,0,1,38.4,17.527a10.438,10.438,0,0,1,1.858-6.594A6.228,6.228,0,0,1,45.322,8.6" transform="translate(81.269 6.079)" fill="#fff"/>
    <path id="Path_1733" data-name="Path 1733" d="M46.958,7.327V2.737H39.49V32.245h7.468V17.564c0-2.732.583-4.663,1.785-5.756a7.583,7.583,0,0,1,5.282-1.639h1.967V2.3A10.088,10.088,0,0,0,50.71,3.648a10.371,10.371,0,0,0-3.752,3.679" transform="translate(104.368 6.079)" fill="#fff"/>
    <path id="Path_1734" data-name="Path 1734" d="M51.914,14.749a7.351,7.351,0,0,1,2.331-4.663A6.728,6.728,0,0,1,58.908,8.41a7.445,7.445,0,0,1,4.954,1.712,5.958,5.958,0,0,1,2.076,4.626ZM66.631,4.111A15.6,15.6,0,0,0,59.09,2.29a15.93,15.93,0,0,0-7.723,1.858,13.083,13.083,0,0,0-5.209,5.319A16.733,16.733,0,0,0,44.3,17.517,16.054,16.054,0,0,0,46.194,25.5a13.579,13.579,0,0,0,5.282,5.355,15.277,15.277,0,0,0,7.65,1.894,14.342,14.342,0,0,0,8.889-2.732A13.33,13.33,0,0,0,72.9,23.018H64.846a6.087,6.087,0,0,1-5.9,3.57A6.9,6.9,0,0,1,54.1,24.767a7.2,7.2,0,0,1-2.222-5.027H73.443a17.135,17.135,0,0,0,.219-2.878,15.831,15.831,0,0,0-1.821-7.65,12.768,12.768,0,0,0-5.173-5.136h0Z" transform="translate(117.081 6.052)" fill="#fff"/>
    <path id="Path_1735" data-name="Path 1735" d="M63.622.42h-7.5V7.706h-3.5v6.12h3.5V28.033c0,6.12,3.133,9.18,9.435,9.18h4.7v-6.3H66.791a3.625,3.625,0,0,1-2.441-.656,2.832,2.832,0,0,1-.729-2.149V13.826h6.594V7.706H63.622V.42Z" transform="translate(139.07 1.11)" fill="#fff"/>
    <path id="Path_1736" data-name="Path 1736" d="M65.434,14.749a7.351,7.351,0,0,1,2.331-4.663A6.728,6.728,0,0,1,72.428,8.41a7.446,7.446,0,0,1,4.954,1.712,5.958,5.958,0,0,1,2.076,4.626ZM80.151,4.111A15.6,15.6,0,0,0,72.61,2.29a15.93,15.93,0,0,0-7.723,1.858,13.083,13.083,0,0,0-5.209,5.319,16.733,16.733,0,0,0-1.858,8.051A16.053,16.053,0,0,0,59.714,25.5,13.579,13.579,0,0,0,65,30.85a15.277,15.277,0,0,0,7.65,1.894,14.342,14.342,0,0,0,8.889-2.732,13.33,13.33,0,0,0,4.881-6.994H78.366a6.087,6.087,0,0,1-5.9,3.57,6.9,6.9,0,0,1-4.845-1.821A7.2,7.2,0,0,1,65.4,19.74H86.963a17.135,17.135,0,0,0,.219-2.878,15.83,15.83,0,0,0-1.821-7.65,12.768,12.768,0,0,0-5.173-5.136h0Z" transform="translate(152.813 6.052)" fill="#fff"/>
    <path id="Path_1737" data-name="Path 1737" d="M15.762,2.243a15.573,15.573,0,1,0,14.28,21.785h-3.06a12.845,12.845,0,1,1,1.566-7.65H11.135V19.11H31.317V17.689A15.594,15.594,0,0,0,15.725,2.17h0Z" transform="translate(0.449 5.735)" fill="#fff"/>
    <path id="Path_1738" data-name="Path 1738" d="M57.428,2.216c-7.869,0-13.734,5.246-16.9,15.154-2.841,8.816-7.65,13.26-14.317,13.26A12.859,12.859,0,1,1,35.279,8.664L37.21,6.734A15.451,15.451,0,0,0,26.172,2.18a15.592,15.592,0,0,0,0,31.183c7.869,0,13.734-5.246,16.9-15.154,2.841-8.816,7.65-13.26,14.317-13.26A12.859,12.859,0,1,1,48.32,26.915L46.39,28.846A15.451,15.451,0,0,0,57.428,33.4a15.592,15.592,0,1,0,0-31.183h0Z" transform="translate(27.962 5.762)" fill="#fff"/>
    <path id="Path_1739" data-name="Path 1739" d="M83.285,17.255a8.1,8.1,0,0,1-6.193,2.514,8.315,8.315,0,0,1-6.266-2.514,8.988,8.988,0,0,1-2.368-6.412,8.988,8.988,0,0,1,2.368-6.412,8.205,8.205,0,0,1,6.266-2.514,8.044,8.044,0,0,1,6.193,2.514,8.988,8.988,0,0,1,2.368,6.412,8.988,8.988,0,0,1-2.368,6.412M86.235,5.379A9.875,9.875,0,0,0,82.52,1.554,10.6,10.6,0,0,0,77.128.17,10.836,10.836,0,0,0,71.7,1.554a9.717,9.717,0,0,0-3.752,3.825,11.089,11.089,0,0,0-1.348,5.5,10.855,10.855,0,0,0,1.348,5.464A10.218,10.218,0,0,0,71.7,20.17a10.836,10.836,0,0,0,5.428,1.384A10.6,10.6,0,0,0,82.52,20.17a9.628,9.628,0,0,0,3.716-3.825,10.855,10.855,0,0,0,1.348-5.464,11.089,11.089,0,0,0-1.348-5.5" transform="translate(176.017 0.449)" fill="#fff"/>
    <path id="Path_1740" data-name="Path 1740" d="M70.625,6.537V3.623h2.514a2.16,2.16,0,0,1,1.239.328,1.206,1.206,0,0,1,.474,1.093,1.317,1.317,0,0,1-.474,1.129,1.926,1.926,0,0,1-1.239.364H70.625Zm5.756.656a3.21,3.21,0,0,0,.729-2.222,3.191,3.191,0,0,0-1.02-2.514,4.081,4.081,0,0,0-2.805-.947H68.33V12.985h2.3V8.468h1.239l2.951,4.517h2.7L74.3,8.359a3.48,3.48,0,0,0,2.076-1.166h0Z" transform="translate(180.59 3.991)" fill="#fff"/>
  </g>
</svg>
