<svg xmlns="http://www.w3.org/2000/svg" width="681.578" height="537.922" viewBox="0 0 681.578 537.922">
  <g id="Layer_1-2" transform="translate(3.793 2.352)">
    <g id="Group_1966" data-name="Group 1966" transform="translate(0 0)">
      <path id="Path_1333" data-name="Path 1333" d="M.95,278.052V414.817Q236.519,291.305,471.991,167.745V30.98Q236.495,154.492.95,278.052Z" transform="translate(202.009 116.825)" fill="none" stroke="#a5a5a5" stroke-miterlimit="10" stroke-width="4"/>
      <path id="Path_1334" data-name="Path 1334" d="M97.8,52.07V188.884q101.552,72.225,202.959,144.5V196.617Q199.279,124.319,97.8,52.07Z" transform="translate(-97.8 198.309)" fill="none" stroke="#a5a5a5" stroke-miterlimit="10" stroke-width="4"/>
      <path id="Path_1335" data-name="Path 1335" d="M.95,250.969q101.552,72.3,202.959,144.547Q439.478,271.931,674.95,148.4L470.921.59Z" transform="translate(-0.95 -0.59)" fill="none" stroke="#a5a5a5" stroke-miterlimit="10" stroke-width="4"/>
      <g id="Group_1965" data-name="Group 1965" transform="translate(63.324 19.114)">
        <g id="Group_1957" data-name="Group 1957" transform="translate(454.797 69.452)">
          <path id="Path_1336" data-name="Path 1336" d="M13.679,24.9V45.035c0,16.39,21.108,29.668,47.128,29.668s45.669-12.354,47.031-27.966h0V43.479h0V24.9c.049,16.39-21.011,29.717-47.08,29.717S13.63,41.339,13.63,24.9Z" transform="translate(-13.63 4.768)" fill="none" stroke="#a5a5a5" stroke-miterlimit="10" stroke-width="4"/>
          <path id="Path_1337" data-name="Path 1337" d="M13.61,48.468c0,16.39,21.108,29.717,47.128,29.717s47.128-13.278,47.128-29.717S86.759,18.8,60.738,18.8,13.61,32.078,13.61,48.468Z" transform="translate(-13.561 -18.8)" fill="none" stroke="#a5a5a5" stroke-miterlimit="10" stroke-width="4"/>
        </g>
        <g id="Group_1958" data-name="Group 1958" transform="translate(336.271 132.193)">
          <path id="Path_1338" data-name="Path 1338" d="M38.049,37.8V57.935c0,16.39,21.108,29.668,47.128,29.668s45.669-12.354,47.031-27.966h0V56.379h0V37.8c.049,16.39-21.011,29.717-47.08,29.717S38,54.239,38,37.8Z" transform="translate(-38 -8.132)" fill="none" stroke="#a5a5a5" stroke-miterlimit="10" stroke-width="4"/>
          <path id="Path_1339" data-name="Path 1339" d="M37.98,61.368c0,16.39,21.108,29.717,47.128,29.717s47.128-13.278,47.128-29.717S111.129,31.7,85.108,31.7,37.98,44.978,37.98,61.368Z" transform="translate(-37.931 -31.7)" fill="none" stroke="#a5a5a5" stroke-miterlimit="10" stroke-width="4"/>
        </g>
        <g id="Group_1959" data-name="Group 1959" transform="translate(219.349 193.961)">
          <path id="Path_1340" data-name="Path 1340" d="M62.089,50.5V70.635c0,16.39,21.108,29.668,47.128,29.668s45.669-12.354,47.031-27.966h0V69.079h0V50.5c.049,16.39-21.011,29.717-47.08,29.717S62.04,66.939,62.04,50.5Z" transform="translate(-62.04 -20.832)" fill="none" stroke="#a5a5a5" stroke-miterlimit="10" stroke-width="4"/>
          <path id="Path_1341" data-name="Path 1341" d="M62.02,74.068c0,16.39,21.108,29.717,47.128,29.717s47.128-13.278,47.128-29.717S135.169,44.4,109.148,44.4,62.02,57.678,62.02,74.068Z" transform="translate(-61.971 -44.4)" fill="none" stroke="#a5a5a5" stroke-miterlimit="10" stroke-width="4"/>
        </g>
        <g id="Group_1960" data-name="Group 1960" transform="translate(101.99 256.167)">
          <path id="Path_1342" data-name="Path 1342" d="M86.219,63.29V83.425c0,16.39,21.108,29.668,47.128,29.668s45.669-12.354,47.031-27.966h0V81.869h0V63.29c.049,16.39-21.011,29.717-47.08,29.717S86.17,79.729,86.17,63.29Z" transform="translate(-86.17 -33.622)" fill="none" stroke="#a5a5a5" stroke-miterlimit="10" stroke-width="4"/>
          <path id="Path_1343" data-name="Path 1343" d="M86.15,86.858c0,16.39,21.108,29.717,47.128,29.717s47.128-13.278,47.128-29.717S159.3,57.19,133.278,57.19,86.15,70.468,86.15,86.858Z" transform="translate(-86.101 -57.19)" fill="none" stroke="#a5a5a5" stroke-miterlimit="10" stroke-width="4"/>
        </g>
        <g id="Group_1961" data-name="Group 1961" transform="translate(0 183.942)">
          <path id="Path_1344" data-name="Path 1344" d="M107.189,48.44V68.575c0,16.39,21.108,29.668,47.128,29.668s45.669-12.354,47.031-27.966h0V67.019h0V48.44c.049,16.39-21.011,29.717-47.08,29.717S107.14,64.879,107.14,48.44Z" transform="translate(-107.14 -18.772)" fill="none" stroke="#a5a5a5" stroke-miterlimit="10" stroke-width="4"/>
          <path id="Path_1345" data-name="Path 1345" d="M107.12,72.008c0,16.39,21.108,29.717,47.128,29.717s47.128-13.278,47.128-29.717S180.269,42.34,154.248,42.34,107.12,55.618,107.12,72.008Z" transform="translate(-107.071 -42.34)" fill="none" stroke="#a5a5a5" stroke-miterlimit="10" stroke-width="4"/>
        </g>
        <g id="Group_1962" data-name="Group 1962" transform="translate(117.943 122.125)">
          <path id="Path_1346" data-name="Path 1346" d="M82.939,35.73V55.865c0,16.39,21.108,29.668,47.128,29.668S175.736,73.18,177.1,57.568h0V54.309h0V35.73c.049,16.39-21.011,29.717-47.08,29.717S82.89,52.169,82.89,35.73Z" transform="translate(-82.89 -6.062)" fill="none" stroke="#a5a5a5" stroke-miterlimit="10" stroke-width="4"/>
          <path id="Path_1347" data-name="Path 1347" d="M82.87,59.3c0,16.39,21.108,29.717,47.128,29.717S177.127,75.737,177.127,59.3,156.019,29.63,130,29.63,82.87,42.908,82.87,59.3Z" transform="translate(-82.821 -29.63)" fill="none" stroke="#a5a5a5" stroke-miterlimit="10" stroke-width="4"/>
        </g>
        <g id="Group_1963" data-name="Group 1963" transform="translate(236.761 59.433)">
          <path id="Path_1348" data-name="Path 1348" d="M58.509,22.84V42.975c0,16.39,21.108,29.668,47.128,29.668s45.669-12.354,47.031-27.966h0V41.419h0V22.84c.049,16.39-21.011,29.717-47.08,29.717S58.46,39.279,58.46,22.84Z" transform="translate(-58.46 6.828)" fill="none" stroke="#a5a5a5" stroke-miterlimit="10" stroke-width="4"/>
          <path id="Path_1349" data-name="Path 1349" d="M58.44,46.408c0,16.39,21.108,29.717,47.128,29.717S152.7,62.847,152.7,46.408,131.589,16.74,105.568,16.74,58.44,30.018,58.44,46.408Z" transform="translate(-58.391 -16.74)" fill="none" stroke="#a5a5a5" stroke-miterlimit="10" stroke-width="4"/>
        </g>
        <g id="Group_1964" data-name="Group 1964" transform="translate(353.682)">
          <path id="Path_1350" data-name="Path 1350" d="M34.469,10.62V30.755c0,16.39,21.108,29.668,47.128,29.668s45.669-12.354,47.031-27.966h0V29.2h0V10.62c.049,16.39-21.011,29.717-47.08,29.717S34.42,27.059,34.42,10.62Z" transform="translate(-34.42 19.048)" fill="none" stroke="#a5a5a5" stroke-miterlimit="10" stroke-width="4"/>
          <path id="Path_1351" data-name="Path 1351" d="M34.4,34.188C34.4,50.578,55.508,63.9,81.528,63.9s47.128-13.278,47.128-29.717S107.549,4.52,81.528,4.52,34.4,17.8,34.4,34.188Z" transform="translate(-34.351 -4.52)" fill="none" stroke="#a5a5a5" stroke-miterlimit="10" stroke-width="4"/>
        </g>
      </g>
    </g>
  </g>
</svg>
