<svg xmlns="http://www.w3.org/2000/svg" width="14" height="14" viewBox="0 0 14 14">
  <g id="Union_9" data-name="Union 9" transform="translate(6172.001 19)" fill="none">
    <path d="M-6166.769-5v-5.232H-6172v-3.537h5.232V-19h3.537v5.231H-6158v3.537h-5.231V-5Z" stroke="none"/>
    <path d="M -6164.232421875 -5.99977445602417 L -6164.232421875 -11.23143482208252 L -6159.0009765625 -11.23143482208252 L -6159.0009765625 -12.76820468902588 L -6164.232421875 -12.76820468902588 L -6164.232421875 -17.9996337890625 L -6165.76904296875 -17.9996337890625 L -6165.76904296875 -12.76820468902588 L -6171.0009765625 -12.76820468902588 L -6171.0009765625 -11.23143482208252 L -6165.76904296875 -11.23143482208252 L -6165.76904296875 -5.99977445602417 L -6164.232421875 -5.99977445602417 M -6163.232421875 -4.99977445602417 L -6166.76904296875 -4.99977445602417 L -6166.76904296875 -10.23143482208252 L -6172.0009765625 -10.23143482208252 L -6172.0009765625 -13.76820468902588 L -6166.76904296875 -13.76820468902588 L -6166.76904296875 -18.9996337890625 L -6163.232421875 -18.9996337890625 L -6163.232421875 -13.76820468902588 L -6158.0009765625 -13.76820468902588 L -6158.0009765625 -10.23143482208252 L -6163.232421875 -10.23143482208252 L -6163.232421875 -4.99977445602417 Z" stroke="none" fill="#039c57"/>
  </g>
</svg>
