<svg width="1080" height="284" viewBox="0 0 1080 284" fill="none" xmlns="http://www.w3.org/2000/svg">
    <g clip-path="url(#clip0_1896_254)">
        <path d="M283.5 283.5H109C43.6 283.5 0 239.9 0 174.4V0H174.4C239.8 0 283.4 43.6 283.4 109V283.4L283.5 283.5Z" fill="white"/>
        <path d="M152.602 98.0996H174.402C215.102 98.0996 239.802 122.9 239.802 163.5V239.8H218.002C177.902 239.8 152.602 214.2 152.602 174.4V98.0996Z" fill="#00DD39"/>
        <path d="M43.6016 43.5996H130.802V239.8H109.002C68.5016 239.8 43.6016 215.3 43.6016 174.4V43.5996Z" fill="#004E2B"/>
        <path d="M348.902 125.4V43.5998H384.002C409.502 43.5998 428.402 60.7998 428.402 84.5998C428.402 108.4 409.502 125.4 384.002 125.4H348.902ZM365.902 109.7H384.802C399.802 109.7 410.702 98.6998 410.702 84.4998C410.702 70.2998 399.702 59.2998 384.802 59.2998H365.902V109.8V109.7ZM454.902 63.1998V96.8998C454.902 107.4 459.902 113.1 467.402 113.1C474.902 113.1 485.002 105.5 485.002 93.2998V63.0998H501.102V125.3H485.802L485.402 117.1C481.102 122.4 474.402 126.4 464.602 126.4C448.902 126.4 438.702 114.9 438.702 97.1998V63.0998H454.802L454.902 63.1998ZM561.102 125.4V91.6998C561.102 81.1998 556.102 75.4998 548.602 75.4998C541.102 75.4998 531.002 83.0998 531.002 95.2998V125.5H514.902V63.2998H530.202L530.502 71.4998C534.802 66.1998 541.502 62.1998 551.302 62.1998C567.002 62.1998 577.202 73.6998 577.202 91.3998V125.5H561.102V125.4ZM586.702 94.2998C586.702 76.0998 600.702 61.9998 619.002 61.9998C637.302 61.9998 636.402 66.2998 640.302 71.2998L640.702 63.0998H656.002V125.3H640.702L640.302 117.1C636.402 122.1 629.302 126.4 619.002 126.4C600.802 126.4 586.702 112.4 586.702 94.0998V94.2998ZM621.402 113.1C632.002 113.1 640.202 105 640.202 94.2998C640.202 83.5998 632.002 75.4998 621.402 75.4998C610.802 75.4998 602.602 83.7998 602.602 94.2998C602.602 104.8 610.802 113.1 621.402 113.1ZM707.202 95.8998H669.802V80.6998H707.202V95.8998ZM721.602 125.4V43.5998H756.702C782.202 43.5998 801.102 60.7998 801.102 84.5998C801.102 108.4 782.202 125.4 756.702 125.4H721.602ZM738.602 109.7H757.502C772.502 109.7 783.402 98.6998 783.402 84.4998C783.402 70.2998 772.402 59.2998 757.502 59.2998H738.602V109.8V109.7ZM811.302 125.4V90.0998C811.302 73.6998 821.802 63.1998 838.202 63.1998H852.702V77.6998H841.902C831.602 77.6998 827.402 81.8998 827.402 92.1998V125.4H811.302ZM897.602 55.2998H886.302L891.302 33.2998H908.402L897.602 55.2998ZM935.002 63.1998H952.502L972.002 108.3L991.502 63.1998H1009L980.002 125.4H963.902L934.902 63.1998H935.002ZM1010.8 94.2998C1010.8 76.0998 1024.8 61.9998 1043.1 61.9998C1061.4 61.9998 1060.5 66.2998 1064.4 71.2998L1064.7 63.0998H1080V125.3H1064.7L1064.4 117.1C1060.5 122.1 1053.4 126.4 1043.1 126.4C1024.9 126.4 1010.8 112.4 1010.8 94.0998V94.2998ZM1045.5 113.1C1056.1 113.1 1064.3 105 1064.3 94.2998C1064.3 83.5998 1056.1 75.4998 1045.5 75.4998C1034.9 75.4998 1026.7 83.7998 1026.7 94.2998C1026.7 104.8 1034.9 113.1 1045.5 113.1ZM345.602 199C345.602 175.2 363.802 156.9 389.802 156.9C415.802 156.9 418.402 165.5 425.002 173.5L413.402 185.1C408.002 177.5 398.602 172.8 389.802 172.8C373.702 172.8 363.202 184.7 363.202 199C363.202 213.3 373.702 225.3 389.802 225.3C405.902 225.3 408.702 220.4 414.002 212.6L425.602 224.2C419.502 233 407.502 241.1 389.802 241.1C363.902 241.1 345.602 222.8 345.602 199ZM433.602 208.8C433.602 189.6 447.902 176.5 466.102 176.5C484.302 176.5 498.402 189.6 498.402 208.8C498.402 228 498.402 212 498.202 215.5H450.502C452.302 222.3 458.002 227.8 468.302 227.8C478.602 227.8 480.702 225.7 485.102 221L495.202 231.1C489.602 236.2 481.602 241.2 467.602 241.2C445.702 241.2 433.702 228.1 433.702 208.9L433.602 208.8ZM482.202 202.4C481.302 195.9 476.102 189.9 466.802 189.9C457.502 189.9 451.602 196 450.002 202.4H482.302H482.202ZM549.602 239.9V202.7C549.602 194.3 546.002 190 539.902 190C533.802 190 525.102 197.6 525.102 209.8V240H509.002V177.8H524.302L524.602 186C528.202 180.6 534.202 176.7 542.102 176.7C550.002 176.7 557.202 180.6 561.302 186.6C566.802 180.2 572.802 176.7 582.802 176.7C597.302 176.7 606.402 187.9 606.402 202.4V240H590.302V202.8C590.302 194.4 586.702 190.1 580.602 190.1C574.502 190.1 565.802 197.7 565.802 209.9V240.1H549.702L549.602 239.9ZM616.202 208.8C616.202 189.6 630.502 176.5 648.702 176.5C666.902 176.5 681.002 189.6 681.002 208.8C681.002 228 681.002 212 680.802 215.5H633.102C634.902 222.3 640.602 227.8 650.902 227.8C661.202 227.8 663.302 225.7 667.702 221L677.802 231.1C672.202 236.2 664.202 241.2 650.202 241.2C628.302 241.2 616.302 228.1 616.302 208.9L616.202 208.8ZM664.802 202.4C663.902 195.9 658.702 189.9 649.402 189.9C640.102 189.9 634.202 196 632.602 202.4H664.902H664.802ZM737.702 239.9V206.2C737.702 195.7 732.702 190 725.202 190C717.702 190 707.602 197.6 707.602 209.8V240H691.502V177.8H706.802L707.102 186C711.402 180.7 718.102 176.7 727.902 176.7C743.602 176.7 753.802 188.2 753.802 205.9V240H737.702V239.9ZM775.602 192.2H761.302V177.7H775.602V160.8H791.702V177.7H814.402V192.2H791.702V213.5C791.702 221.4 795.702 225.4 803.602 225.4H814.402V239.9H800.802C784.202 239.9 775.602 231.3 775.602 214.7V192.3V192.2ZM857.802 94.2998C857.802 76.0998 871.802 61.9998 890.102 61.9998C908.402 61.9998 907.502 66.2998 911.402 71.2998L911.702 63.0998H927.002V125.3H911.702L911.402 117.1C907.502 122.1 900.402 126.4 890.102 126.4C871.902 126.4 857.802 112.4 857.802 94.0998V94.2998ZM892.502 113.1C903.102 113.1 911.302 105 911.302 94.2998C911.302 83.5998 903.102 75.4998 892.502 75.4998C881.902 75.4998 873.702 83.7998 873.702 94.2998C873.702 104.8 881.902 113.1 892.502 113.1Z" fill="white"/>
    </g>
    <defs>
        <clipPath id="clip0_1896_254">
            <rect width="1080" height="283.5" fill="white"/>
        </clipPath>
    </defs>
</svg>
