<svg xmlns="http://www.w3.org/2000/svg" xmlns:xlink="http://www.w3.org/1999/xlink" width="136.818" height="136.818" viewBox="0 0 136.818 136.818">
  <defs>
    <clipPath id="clip-path">
      <rect id="Rectangle_816" data-name="Rectangle 816" width="37.729" height="155.761" fill="#f2662f"/>
    </clipPath>
  </defs>
  <g id="Group_2091" data-name="Group 2091" transform="translate(17.678 127.818) rotate(-135)">
    <g id="Group_2090" data-name="Group 2090" transform="translate(-12.728 0)" clip-path="url(#clip-path)">
      <path id="Path_2997" data-name="Path 2997" d="M37.729,155.761c-14.1-6.826-32.9-43.679-36.319-69.943-3.7-28.428-.6-44.711,15.12-78.079-2.228.494-3.96.96-5.719,1.248a33.5,33.5,0,0,1-5.791.588c-.6-.008-1.581-1.044-1.667-1.7A2.467,2.467,0,0,1,4.595,5.855C9.94,3.878,15.329,2.016,20.738.214c1.805-.6,3.142.058,3.63,2.03,1.8,7.25,3.685,14.481,5.325,21.766.387,1.718-.058,3.624-.137,5.947-4.735-1.816-4.2-5.825-5.466-8.68-1.342-3.018-2.15-6.273-3.424-10.13A88.3,88.3,0,0,0,8.038,39.618c-9.078,36.3-1.6,69.62,18.685,100.484,2.641,4.019,5.747,7.729,8.587,11.62.767,1.052,1.35,2.238,2.419,4.04" transform="translate(-0.001 0)" fill="#f2662f"/>
    </g>
  </g>
</svg>
