<svg xmlns="http://www.w3.org/2000/svg" viewBox="0 0 1113.91 585.25"><g id="Layer_2" data-name="Layer 2"><g id="Layer_1-2" data-name="Layer 1"><path d="M1060.65,303.53a15.41,15.41,0,0,0,3.14.05l1.25-.08C1063.54,303.53,1062.08,303.53,1060.65,303.53ZM548.93,304.7c.41,0,.82,0,1.23.05a24.41,24.41,0,0,0,5.29-.05Zm511.72-1.17a15.41,15.41,0,0,0,3.14.05l1.25-.08C1063.54,303.53,1062.08,303.53,1060.65,303.53Zm-225,194.34a14,14,0,0,0,.9,1.92,8.27,8.27,0,0,0,.54.82ZM548.93,304.7c.41,0,.82,0,1.23.05a24.41,24.41,0,0,0,5.29-.05ZM158,261.09h16C172.17,261.09,163,261.06,158,261.09ZM123.47,263c-.07.08-.13.18-.2.25l.22.34Z"/><path d="M1113.9,271.56a93.9,93.9,0,0,0-11.22-46.36c-28.53-54.34-56.49-109-84.3-163.66-3.55-7-8.1-10-15.58-10q-94.78.08-189.58.07c-10.76,0-14.19,3.62-14.25,14.32-.09,15.71,0,31.43,0,47.15,0,81.63.13,163.26-.09,244.88-.06,23.56,4.49,19.52-20.68,19.72a10.38,10.38,0,0,1-2.55-.84c-.13-2.68-.37-5.5-.38-8.31,0-23.46,0-46.92,0-70.37,0-10.9-3.86-14.73-14.52-14.75-9.31,0-18.61,0-28.52,0-.31-3.31-.77-6.1-.79-8.89-.08-12.69.5-25.41-.22-38-.49-8.58,1.72-13.48,10.12-17.38,14.48-6.73,21.4-19.78,20.91-35.4-.49-15.83-8.11-28.41-23.24-34.73-6.21-2.59-7.78-6.08-7.74-12.42.27-40.69.19-81.37.11-122.08C731.3,3.55,727.91.11,717.24.05c-19.39-.11-38.78,0-58.17,0a15.13,15.13,0,0,0-13.3,6.74c-6.17,8.44-13.39,16.09-19.45,24.59-3.53,5-7.56,6.22-13.29,6.2-53.62-.17-107.24-.09-160.86-.09q-198.55,0-397.11,0c-12,0-15.31,3.34-15.37,15.23,0,4.75,0,9.5,0,14.39-1.44.44-2.31.68-3.16,1C14,75.35-1.88,95.68.18,120.68c1.62,19.77,11.32,34.25,29.37,42.08,7.93,3.44,10.71,7.44,10.39,16.19-.78,21.52-.26,43.08-.25,64.62,0,13.73,3.79,17.6,17.24,17.6h68c-.48.61-1,1.22-1.45,1.84l0,.59,2.05,55c-.08,17,0,34.08,0,51.13,0,2.51-.33,5-.54,8.1-10,0-19.35-.05-28.64,0-10.1.07-13.72,3.68-13.74,13.9q-.07,47,0,94.08c0,10.43,3.35,13.95,13.68,14.05,15.56.17,31.12,0,46.68,0,13.68,0,13.53.05,17.83,13.08,11.67,35.33,34.78,59,71.15,68.77,51.33,13.82,104.54-15.31,121.09-67.27,4.68-14.71,4.39-14.53,19.59-14.71,5.35-.06,7.13,2.12,8.91,6.79,4.55,11.92,8.54,24.38,15.28,35,24.38,38.55,78,54.2,120,36.27,31.81-13.58,51.65-37.43,60-70.62,1.7-6.75,4.54-7.42,10.12-7.41,74.68.12,149.37,0,224.05.16.42,0,.84,0,1.26,0a149.07,149.07,0,0,0,23.44-2.09l1.44,2.74,4.32,8.27h0a114.79,114.79,0,0,0,16.5,35.58c25.43,36,77.76,50.87,118.35,33.41,31.31-13.47,51.68-36.41,59.59-69.76,1.48-6.25,4.07-8.55,10.63-8.36,16.75.46,33.51.17,50.27.15,14.75,0,16.84-2.15,16.84-17.2C1113.59,412.32,1113.17,341.94,1113.9,271.56Zm-368.75,32.8c7.35-.05,9.36,1.94,9.16,9.2-.52,18.41-.42,36.87,0,55.28.13,6.65-1.5,9.11-8.71,9.11q-295.42-.29-590.85,0c-6.34,0-8.21-1.75-8.08-8.09.38-19.14.12-38.29.15-57.42,0-2.35.24-4.68.42-7.89h8.11q192,0,384.09,0h1.9c2.54,0,5.09,0,7.63.16H575C631.72,304.68,688.43,304.74,745.15,304.36ZM464,158.52c13.78,0,25.89,12.29,25.87,26.16a25.79,25.79,0,0,1-26,25.69c-14.23,0-26-11.81-25.92-25.87C438,170.71,450.31,158.47,464,158.52Zm-44,10c-1.53,4.34-3.86,5.66-8.38,5.65Q240.08,174,68.52,174c-2.5,0-5-2.1-7.5-3.23,1.81-1.76,3.32-4.3,5.49-5.17,17.06-6.69,28.67-18.12,33.45-36.2.44-1.67,3.09-3.24,5-3.92s4.26-.2,6.41-.2H452c2.37,11.86,2.12,11.94-7.54,16.68C432.88,147.56,424.32,156.25,420,168.52Zm138.4-29.77c.16,4-.78,6.05-5.52,7.31a41,41,0,0,0-30.33,37.39c-.95,15.24,9.59,31.25,25.22,38.23a24.25,24.25,0,0,0,4.08,1.19c5.78,1.35,9.45,11.59,5.31,15.58-1.27,1.23-3.92,1.38-5.94,1.39-23.45.1-46.9.15-70.35-.1-2.21,0-5.6-1.69-6.32-3.45-1.38-3.42.35-6.11,4.4-7.45,12.92-4.24,21.81-12.92,27.71-25.15,11.07-23-1.68-54.24-25.77-62.59-6-2.08-9-7.7-6.31-13.15.72-1.5,3.8-2.53,5.82-2.58,12-.23,23.93-.11,35.89-.11,11.73,0,23.46.19,35.18-.09,5.36-.14,7.49,1.87,7,7.12A46.42,46.42,0,0,0,558.41,138.75ZM710.5,277.2c0,3.75-.55,6.3-5.44,6.28-40.86-.18-81.72-.15-122.59-.2a12.67,12.67,0,0,1-2.46-.61,46.35,46.35,0,0,1-.64-5.45c0-15.53.06-31.07-.09-46.61,0-4.35,1.05-6.53,6-6.51q59.51.21,119,0c4.77,0,6.29,2.06,6.25,6.48C710.43,246.13,710.47,261.68,710.5,277.2Zm-162-15.93c3.21,0,9.08,1.24,9.19,2.34a78.61,78.61,0,0,1-.86,18.36c-.1.71-4.24,1.21-6.5,1.21q-69.63.18-139.27.22-29.43,0-58.87,0-99.06,0-198.14,0a29.94,29.94,0,0,1-7.31-.85l-.06-10.26,0-2.54,0-8.71s5.8.1,11.35.07c5,0,14.2,0,16,0h.32Q361.42,261.25,548.51,261.27Zm172.83-94.78c11.54,0,19.76,7.39,20,17.74s-8.28,19.16-19.82,19.21q-79,.24-157.92,0c-9.79,0-17.36-6.08-19.65-14.75-1.82-6.87,1.52-15.53,8.54-19.62,3.09-1.79,7.22-2.47,10.89-2.5,26.32-.2,52.64-.11,79-.11S695,166.45,721.34,166.49ZM673.8,20.7c10,0,20.09.17,30.12-.09,4.46-.12,6.66,1,6.65,5.89q-.17,56.31-.09,112.62c0,3.89-1.06,6.17-5.73,6.15-40.88-.15-81.76-.13-122.65-.17a16.11,16.11,0,0,1-2.71-.84c0-5.09-.08-10.06,0-15s3.88-4,6.82-4q26.89-.09,53.8,0c20.5,0,34.9-9.22,43-28,8.79-20.33-1.57-46.5-21.91-55.46-3.69-1.62-7.42-3.15-11.13-4.72C655.1,24.86,661.16,20.7,673.8,20.7ZM61.53,59c2.35-.15,4.68-.4,7-.4q285.82,0,571.67-.26c16.64,0,28.36,14.31,23.87,29.9-2.44,8.48-11.1,15.41-21.34,16.29-2.85.24-5.74.12-8.61.12h-283q-120.94,0-241.89.13c-5.91,0-9.5-1-11.82-7.13C91.93,83.17,81,73.62,66.62,68.82,60.9,66.93,60.26,64.28,61.53,59ZM50.92,146.77C33.45,146.87,20,132.33,21.2,117c0-16.52,12.91-29.73,29.15-29.85a30.33,30.33,0,0,1,30.25,30A29.92,29.92,0,0,1,50.92,146.77Zm19.23,93.28c-7.17,0-9.86-1.76-9.37-9.18a225.72,225.72,0,0,0,0-27.28c-.36-6.55,1.63-8.73,8.43-8.64,28,.35,56,.13,84,.13,85,0,170,.11,255-.18,7.13,0,10.58,2.09,13.15,8.67a40.22,40.22,0,0,0,25.5,24.33c6.4,2.14,7.27,5.77,5.21,12H444.3Q257.22,239.9,70.15,240.05ZM158,472.84c-.51,4.69-2,6.68-7.07,6.56-13.61-.3-27.24-.22-40.86,0-4.56.08-6.34-1.34-6.3-6.13q.3-34.07,0-68.13c0-4.71,1.51-6.21,6.17-6.18,29.87.14,59.75.07,89.62.09a25,25,0,0,1,3.43.51c-7.43,6.91-15,12.93-21.34,20A93.59,93.59,0,0,0,158,472.84Zm98.81,91c-42.34.79-79.18-34-78.92-79.11.26-44.31,35.66-78.75,79.37-78.88s78.87,35.88,79.25,79.84C336.83,527.61,299.08,565.75,256.77,563.88ZM395.43,430.64c-9.37,12.54-14.32,27.39-15.71,43.11-.39,4.44-2.19,5.52-6.27,5.63-15,.42-15.1.57-18.18-13.83-5.79-27-19.87-48.44-42.95-63.83a16.55,16.55,0,0,1-1.94-2.16H423.31C414.16,409.63,403.83,419.42,395.43,430.64Zm83.25,133.55c-41.22,0-80.22-35.79-78.26-79.44-1.35-42.74,35.71-79.18,79.14-78.91s79.11,36.12,78.79,79.68C558,529.77,521,564.2,478.68,564.19Zm320.37-93.13c.08,6.08-1.62,8.39-8.09,8.37q-102.32-.3-204.64,0c-4.86,0-7.54-.95-8.16-6.33-3.49-30.51-18.63-54-43.66-71.36a19.65,19.65,0,0,1-2.06-2.71h8.15q124.93,0,249.87-.14c6.4,0,8.77,1.48,8.64,8.3C798.68,428.45,798.78,449.76,799.05,471.06Zm218.28,22.4a78.24,78.24,0,0,1-64,69.47c-37.11,6.8-81.38-12.91-92.92-63.35,0-.06,0-.13,0-.21-2-9.42-.94-21.1.21-28.39,5.62-25.59,19.79-45.33,44-57.3a75.11,75.11,0,0,1,55.13-5.07C991.83,417.72,1021.49,448.37,1017.33,493.46Zm75.43-20.67c0,5-1.8,6.69-6.77,6.59-13.64-.25-27.29-.28-40.93,0-5,.12-6.19-1.79-6.92-6.5-5.89-38.31-26.38-66.45-62.34-80.73-54.4-21.64-113.72,6.79-131.49,60.64a129.17,129.17,0,0,0-4.85,20.84c-.71,4.66-2.72,6.18-7.08,5.68a21.08,21.08,0,0,0-5,0c-6.44.84-8.1-2.1-8.05-8.26.26-32.56.12-65.12.12-97.67V130c0-16.5.2-33-.1-49.5-.11-5.73,1.27-8.08,7.55-8q83.65.31,167.32,0c5,0,7.35,2.14,9.33,6,27.77,54.45,55.13,109.13,83.7,163.16,6.53,12.38,4.91,24.45,5,36.89,0,1.19-4,3.39-6.26,3.48-12.91.44-25.84.2-38.76.58-18.9.57-33,17.11-36.2,32.37-4.6,21.92,2.3,42.1,20.08,52.18,6.37,3.62,14.36,5.25,21.78,5.91,10.92,1,22,.42,33,.17,4.69-.1,6.91,1,6.87,6.31Q1092.49,426.11,1092.76,472.79Zm.06-161.59c-.5,10.75-.38,21.52,0,32.26.2,6.3-1.5,9.16-8.46,8.74-9.29-.6-18.64-.3-28-.12s-17.87-1.52-22.16-10.9c-4.14-9.07-4.66-18.09-.41-26.71,0,0,0,0,0,0,7-11.36,16-11,26.83-10.92,1.43,0,2.89,0,4.39,0l.42,0,.83,0c.36,0,.73,0,1.09,0,5.49-.17,11,.05,16.46-.38C1090.1,302.55,1093.15,304.14,1092.82,311.2Z"/><path d="M947.91,261.17q-43.77,0-87.55,0c-11.64,0-15.4-3.75-15.4-15.38q0-67.82,0-135.64c0-10.8,3.35-14.25,14-14.26,36.36,0,72.72.1,109.08-.1,7.81,0,11.89,3.3,15.15,10.3,16,34.28,32.47,68.3,48.76,102.42,5.54,11.6,11.1,23.18,16.51,34.84,4.82,10.41.08,17.75-11.54,17.81-17.7.1-35.4,0-53.11,0Zm75.25-21.67c-2.29-5.14-4.06-9.39-6-13.54-16.36-34.36-32.83-68.66-49-103.08-2.26-4.79-5.13-6.48-10.42-6.43-27.76.26-55.52.11-83.28.14-2.54,0-5.08.3-7.52.46V239.5Z"/><path d="M992.86,485.57c-.29,30.48-24.39,54-54.9,53.61-29.9-.39-54-24.86-53.77-54.55.26-29.36,25.45-54.32,54.68-54.18C968.65,430.59,993.15,455.61,992.86,485.57Zm-54.1,32.86a33.68,33.68,0,0,0,33.4-33.73c-.22-17.82-15.78-33.26-33.49-33.23s-33.34,15.6-33.44,33.23A33.82,33.82,0,0,0,938.76,518.43Z"/><path d="M311,485.06c1.47,28.78-23.4,54.56-54.2,54.18-30-.36-53.89-24.1-53.89-54.16,0-29.7,24.38-54.8,53.86-54.54C287.29,430.81,312.1,455.37,311,485.06Zm-54.36,33.38c18.28.27,33.16-14.14,33.78-32.71.59-17.73-14.61-33.8-32.4-34.24C239.87,451,224.29,466,224.05,484,223.79,503.31,237.83,518.17,256.61,518.44Z"/><path d="M479.18,539.17c-30.55,0-54.26-23.74-54.19-54.31.07-29.73,24.51-54.37,54-54.4s54.16,24.46,54.39,54.17A53.8,53.8,0,0,1,479.18,539.17Zm33.57-54.34c-.12-17.82-16.33-33.64-34.18-33.35s-33.1,16-32.92,33.82a33.79,33.79,0,0,0,34,33.13C497.53,518.18,512.87,502.6,512.75,484.83Z"/><path d="M146.69,272.27l0-2.54A10.75,10.75,0,0,1,146.69,272.27Z"/><path d="M548.93,304.7H541l.29-.16C543.84,304.54,546.39,304.56,548.93,304.7Z"/><path d="M124.92,261.18c-.48.61-1,1.22-1.45,1.84l-.07-1.84Z"/></g></g></svg>