<svg id="Layer_1" data-name="Layer 1" xmlns="http://www.w3.org/2000/svg" viewBox="0 0 62.09 34.68"><defs><style>.cls-1{fill:#808285;}</style></defs><path d="M25.62,30.05,25.5,30,1.6,16.21a.27.27,0,0,1,0-.46L27.09,1a.28.28,0,0,1,.25,0L51.24,14.8a.26.26,0,0,1,0,.45ZM2.22,16l23.4,13.48L50.62,15,27.21,1.55Zm23.4,10.38-5.29-3.05,6.88-4,5.29,3Zm-4.27-3.05,4.27,2.47,5.87-3.39-4.28-2.45Zm-3.7-1.55L7.58,16,27.21,4.61l10.07,5.82ZM8.59,16l9.06,5.23L36.27,10.43,27.21,5.2Zm26.59,4.89-5.29-3.05L40,12,45.25,15Zm-4.27-3.05,4.27,2.47L44.24,15,40,12.56Z"/><path d="M25.76,33.65a.26.26,0,0,1-.39-.22V29.61l.13-.07L51,14.81a.26.26,0,0,1,.39.23v3.67a.26.26,0,0,1-.13.22Zm.12-3.75V33l25-14.44V15.47Z"/><path d="M25.49,33.65,1.58,19.85a.25.25,0,0,1-.12-.22V16a.27.27,0,0,1,.4-.23l24,13.84v3.82A.26.26,0,0,1,25.49,33.65ZM2,19.48,25.37,33V29.9L2,16.42Z"/><path d="M33.59,12.56,27,8.73V4.92a.26.26,0,0,1,.39-.23l9.93,5.74ZM27.47,8.44,33.59,12l2.68-1.54-8.8-5.09Z"/><path d="M11.27,18.08,7.58,16,27.07,4.69a.27.27,0,0,1,.4.23V8.73ZM8.59,16l2.68,1.55L27,8.44V5.34Z"/><path d="M28.81,24.52,27,23.46V19.67a.27.27,0,0,1,.4-.23l5.14,2.95Zm-1.34-1.36,1.34.78,2.68-1.55-4-2.31Z"/><path d="M41.56,17.16l-1.9-1,.05-3.86a.26.26,0,0,1,.39-.22l5.15,3Zm-1.39-1.33,1.38.75L44.24,15l-4-2.33Z"/><path d="M33.56,19.94,29.9,17.79l9.93-5.74a.26.26,0,0,1,.39.23l-.06,3.85ZM30.9,17.79l2.66,1.56,6.1-3.52,0-3.12Z"/><path d="M24,25.44l-3.7-2.13,6.73-3.87a.28.28,0,0,1,.41.23v3.79Zm-2.68-2.13L24,24.86,27,23.16V20.08Z"/><path class="cls-1" d="M59.37,18.75H58V14.91H59.2a1.53,1.53,0,0,1,.95.26.94.94,0,0,1,.33.78.67.67,0,0,1-.16.45.89.89,0,0,1-.43.3.91.91,0,0,1,.54.34.94.94,0,0,1,.2.62,1,1,0,0,1-.33.81A1.47,1.47,0,0,1,59.37,18.75Zm-.9-3.43v1.22h.84a.67.67,0,0,0,.47-.16.57.57,0,0,0,.18-.44c0-.42-.25-.62-.76-.62Zm1,1.62h-1v1.4h.9a.84.84,0,0,0,.55-.17.66.66,0,0,0,.2-.51.78.78,0,0,0-.17-.53A.68.68,0,0,0,59.44,16.94Z"/><path class="cls-1" d="M11.26,7,10.9,6H9.3L8.93,7H8.4L9.89,3.19h.44L11.79,7ZM10.1,3.85,9.46,5.6h1.29l-.63-1.75Z"/><rect class="cls-1" x="13.93" y="8.69" width="0.25" height="3.56" transform="translate(-1.74 18.07) rotate(-62.39)"/><rect class="cls-1" x="55.07" y="14.78" width="0.29" height="4.21"/></svg>