<svg id="Layer_1" data-name="Layer 1" xmlns="http://www.w3.org/2000/svg" viewBox="0 0 156.28 122.85"><defs><style>.cls-1{fill:#13110c;}</style></defs><path class="cls-1" d="M43,76.33A18.16,18.16,0,1,0,60.91,94.49,18.05,18.05,0,0,0,43,76.33Zm0,30.54A12.38,12.38,0,1,1,55.22,94.49,12.31,12.31,0,0,1,43,106.87Z"/><path class="cls-1" d="M100.39,94.49A17.91,17.91,0,1,0,118.3,76.33,18.05,18.05,0,0,0,100.39,94.49ZM118.3,82.11a12.38,12.38,0,1,1-12.22,12.38A12.31,12.31,0,0,1,118.3,82.11Z"/><path class="cls-1" d="M153.44,10.18l-91.4.2L58.15,1.69A2.86,2.86,0,0,0,55.55,0L40.16.34l.33,5.43,13.13-.2L69.91,40.71l-19,.34v-28A2.87,2.87,0,0,0,48,10.18H22.92A13,13,0,0,0,10,23.24L10.31,41A13.1,13.1,0,0,0,0,53.78V74.13a2.87,2.87,0,0,0,.84,2l14.5,14.51a28,28,0,0,0,27.81,32,27.43,27.43,0,0,0,27.34-25.3l20-.31a27.94,27.94,0,0,0,27.8,25.79q1.26,0,2.55-.12a28.39,28.39,0,0,0,9-54l-11.55-14.8L154,46.42a2.87,2.87,0,0,0,2.28-2.82V13.06A2.87,2.87,0,0,0,153.44,10.18ZM50.87,46.48l21-.2,2.59,4.61-23.6.34Zm25.57,10,1.62,3.6a3,3,0,0,0,3,1.63h.21L102,57.11l7.44,10.53a19.89,19.89,0,0,0-7.14,4L97.72,67a2.82,2.82,0,0,0-2-.84H65.59a2.82,2.82,0,0,0-2,.84l-4.15,4.61a22.19,22.19,0,0,0-8.56-4l-.34-10.92ZM15.73,26.12l19.41-.33.33,14.92-19.74.34Zm-10,47V56.64L10,56.32l.58,21.61Zm10,10.18V53.78a2.87,2.87,0,0,0-2.84-2.89l-6.76.45a7.25,7.25,0,0,1,6.76-4.86H38a2.87,2.87,0,0,0,2.85-2.88V23.24A2.87,2.87,0,0,0,38,20.36l-21.81.45A7.23,7.23,0,0,1,22.92,16l22.26-.34.37,50.68c-.84-.08-1.69-.13-2.55-.13A26.88,26.88,0,0,0,17.32,84.72ZM43,117.05A22.56,22.56,0,1,1,65.25,94.49,22.43,22.43,0,0,1,43,117.05ZM70.82,91.91A26,26,0,0,0,63.25,75.5l3.52-3.58,11-.33.34,20Zm12.68,0v-20l10.94-.09L98.05,75A26.12,26.12,0,0,0,90.82,91.6Zm57.05,2.55a22.34,22.34,0,1,1-38.18-15.86,22,22,0,0,1,15.76-6.7l.08-.34v.34a22.18,22.18,0,0,1,8,1.5A22.7,22.7,0,0,1,140.55,94.49ZM121.64,66.38a24.54,24.54,0,0,0-3.31-.22,10,10,0,0,0-3.26.4l-7.41-10.42,4.94-1ZM82.42,55.82,69.1,26.13l81.49-.34.27,15.4ZM66.6,20.56,64.54,16l86.05-.34.34,4.75Z"/><polygon class="cls-1" points="40.83 56.66 40.49 50.89 30.12 51.23 30.45 56.66 40.83 56.66"/></svg>