<svg id="Layer_1" data-name="Layer 1" xmlns="http://www.w3.org/2000/svg" viewBox="0 0 62.16 35.79"><defs><style>.cls-1{fill:#808285;}</style></defs><path d="M27.54,33.12,2.83,18.86a.26.26,0,0,1-.12-.23V15.49a.26.26,0,0,1,.39-.23L27.92,29.59V32.9A.25.25,0,0,1,27.54,33.12ZM3.21,18.49l24.2,14V29.88l-24.2-14Z"/><path d="M27.41,32.9V29.59L52.24,15.25a.25.25,0,0,1,.38.22v3.16a.26.26,0,0,1-.12.23L27.79,33.12A.25.25,0,0,1,27.41,32.9Zm.51-3v2.58l24.2-14V15.91Z"/><path d="M27.67,30,2.85,15.7a.26.26,0,0,1,0-.46L27.54,1a.28.28,0,0,1,.25,0L52.5,15.25a.25.25,0,0,1,0,.44ZM3.47,15.47l24.2,14,24.19-14L27.67,1.5Z"/><path class="cls-1" d="M10.08,31.53a1,1,0,0,1-.68-.23.85.85,0,0,1-.23-.63A.75.75,0,0,1,9.5,30a1.58,1.58,0,0,1,.9-.23H11v-.28a.54.54,0,0,0-.15-.4.56.56,0,0,0-.42-.14.7.7,0,0,0-.42.12.39.39,0,0,0-.15.31H9.31a.69.69,0,0,1,.3-.58,1.24,1.24,0,0,1,.81-.25,1.16,1.16,0,0,1,.78.25.88.88,0,0,1,.29.7V30.9a1.93,1.93,0,0,0,.07.57H11c0-.18,0-.32-.06-.43a1.19,1.19,0,0,1-.38.36A1.09,1.09,0,0,1,10.08,31.53Zm-.38-.85h0a.38.38,0,0,0,.12.3.51.51,0,0,0,.37.11,1,1,0,0,0,.49-.14.72.72,0,0,0,.3-.33v-.47h-.58a.72.72,0,0,0-.5.16A.44.44,0,0,0,9.7,30.68Z"/><path class="cls-1" d="M46.21,30.1v0a1.53,1.53,0,0,1-.3,1,1,1,0,0,1-.81.38.92.92,0,0,1-.84-.44l-.06.38h-.43V27.36h.52V29a.93.93,0,0,1,.8-.39,1,1,0,0,1,.82.41A1.88,1.88,0,0,1,46.21,30.1ZM45,29a.7.7,0,0,0-.67.43v1.24a.72.72,0,0,0,.68.45.62.62,0,0,0,.54-.26,1.12,1.12,0,0,0,.19-.7v0a1.57,1.57,0,0,0-.18-.81A.62.62,0,0,0,45,29Z"/><path class="cls-1" d="M59.48,14.62v1.65a1,1,0,0,1,.84-.44.91.91,0,0,1,.72.28,1.28,1.28,0,0,1,.25.84v1.79h-.53v-1.8a.77.77,0,0,0-.15-.52.57.57,0,0,0-.45-.17.78.78,0,0,0-.68.38v2.11H59V14.62Z"/><polygon class="cls-1" points="29.81 34.84 29.69 34.63 54.27 20.58 54.39 20.8 29.81 34.84"/><polygon class="cls-1" points="25.45 34.84 0.87 20.8 1 20.58 25.58 34.63 25.45 34.84"/><rect class="cls-1" x="56.33" y="15.56" width="0.25" height="3.18"/></svg>