<svg xmlns="http://www.w3.org/2000/svg" width="665.999" height="267.004" viewBox="0 0 665.999 267.004">
  <path id="Subtraction_4" data-name="Subtraction 4" d="M7090,21810H6424v-267l666,0v267Zm-104-214a49.83,49.83,0,1,0,19.465,3.928A49.669,49.669,0,0,0,6986,21596Zm-153,0a49.83,49.83,0,1,0,19.462,3.928A49.686,49.686,0,0,0,6833,21596Zm-153,0a49.823,49.823,0,1,0,19.461,3.928A49.686,49.686,0,0,0,6680,21596Zm-153,0a49.83,49.83,0,1,0,19.462,3.928A49.679,49.679,0,0,0,6527,21596Z" transform="translate(-6424.002 -21543)" fill="#fff"/>
</svg>
